<?xml version="1.0" encoding="UTF-8"?>
<!DOCTYPE svg PUBLIC "-//W3C//DTD SVG 1.1//EN" "http://www.w3.org/Graphics/SVG/1.1/DTD/svg11.dtd">
<svg xmlns="http://www.w3.org/2000/svg" version="1.1" width="320px" height="234px" style="shape-rendering:geometricPrecision; text-rendering:geometricPrecision; image-rendering:optimizeQuality; fill-rule:evenodd; clip-rule:evenodd" xmlns:xlink="http://www.w3.org/1999/xlink">
<g><path style="opacity:1" fill="#521979" d="M 131.5,19.5 C 128.5,19.5 125.5,19.5 122.5,19.5C 124.947,16.1146 127.28,12.6146 129.5,9C 125.755,9.0354 125.088,8.0354 127.5,6C 133.833,5.33333 140.167,5.33333 146.5,6C 144.641,7.98139 142.308,8.98139 139.5,9C 137.353,12.9693 134.687,16.4693 131.5,19.5 Z"/></g>
<g><path style="opacity:1" fill="#551d7a" d="M 180.5,20.5 C 177.167,20.5 173.833,20.5 170.5,20.5C 168.5,20.5 166.5,20.5 164.5,20.5C 163.833,20.5 163.167,20.5 162.5,20.5C 165.102,15.4711 168.102,10.6377 171.5,6C 177.859,5.16941 184.193,5.33608 190.5,6.5C 190.291,7.08605 189.957,7.58605 189.5,8C 186.5,8.33333 183.5,8.66667 180.5,9C 179.833,9.66667 179.167,10.3333 178.5,11C 181.226,11.1816 183.893,11.6816 186.5,12.5C 186.291,13.086 185.957,13.586 185.5,14C 181.911,14.2069 178.411,14.7069 175,15.5C 174.833,15.8333 174.667,16.1667 174.5,16.5C 177.167,17.1667 179.833,17.8333 182.5,18.5C 182.145,19.5223 181.478,20.189 180.5,20.5 Z"/></g>
<g><path style="opacity:1" fill="#561d7b" d="M 186.5,20.5 C 185.833,20.5 185.167,20.5 184.5,20.5C 184.062,20.5654 183.728,20.3988 183.5,20C 186.833,15.3333 190.167,10.6667 193.5,6C 199.859,5.16941 206.193,5.33608 212.5,6.5C 212.291,7.08605 211.957,7.58605 211.5,8C 208.118,8.17636 204.785,8.67636 201.5,9.5C 201.291,10.086 200.957,10.586 200.5,11C 203.167,11.3333 205.833,11.6667 208.5,12C 208.043,12.414 207.709,12.914 207.5,13.5C 204.215,14.3236 200.882,14.8236 197.5,15C 196.167,16.6667 194.833,18.3333 193.5,20C 191.19,20.4966 188.857,20.6633 186.5,20.5 Z"/></g>
<g><path style="opacity:1" fill="#58217d" d="M 215.5,5.5 C 218.898,5.17964 222.232,5.51298 225.5,6.5C 222.289,11.0891 218.955,15.5891 215.5,20C 212.167,20.6667 208.833,20.6667 205.5,20C 209.054,15.2863 212.387,10.453 215.5,5.5 Z"/></g>
<g><path style="opacity:1" fill="#511777" d="M 237.5,19.5 C 231.31,19.8229 225.31,19.4896 219.5,18.5C 222.123,14.0979 225.123,9.93122 228.5,6C 234.833,5.33333 241.167,5.33333 247.5,6C 247.043,6.41395 246.709,6.91395 246.5,7.5C 242.959,8.19997 239.459,8.86663 236,9.5C 235.833,9.83333 235.667,10.1667 235.5,10.5C 238.107,11.3184 240.774,11.8184 243.5,12C 243.043,12.414 242.709,12.914 242.5,13.5C 239.215,14.3236 235.882,14.8236 232.5,15C 231.833,15.6667 231.167,16.3333 230.5,17C 233.099,17.769 235.599,17.6023 238,16.5C 239.927,17.7624 239.76,18.7624 237.5,19.5 Z"/></g>
<g><path style="opacity:1" fill="#501677" d="M 159.5,19.5 C 153.167,19.5 146.833,19.5 140.5,19.5C 143.323,15.1951 146.156,10.8618 149,6.5C 152.455,5.20861 155.955,5.20861 159.5,6.5C 157.539,10.258 155.205,13.758 152.5,17C 155.226,17.1816 157.893,17.6816 160.5,18.5C 160.376,19.1067 160.043,19.44 159.5,19.5 Z"/></g>
<g><path style="opacity:1" fill="#541b7a" d="M 81.5,20.5 C 81.1667,20.5 80.8333,20.5 80.5,20.5C 81.2423,18.5742 82.2423,16.7409 83.5,15C 83.1667,14.8333 82.8333,14.6667 82.5,14.5C 80.4925,16.0082 78.8259,17.8416 77.5,20C 74.1667,20.6667 70.8333,20.6667 67.5,20C 70.7853,15.0463 74.452,10.3797 78.5,6C 84.8333,5.33333 91.1667,5.33333 97.5,6C 97.9574,6.41395 98.2907,6.91395 98.5,7.5C 95.8676,11.9315 92.8676,16.0982 89.5,20C 86.854,20.4974 84.1873,20.6641 81.5,20.5 Z M 85.5,8.5 C 87.6559,8.87182 87.6559,9.87182 85.5,11.5C 84.4376,10.5754 84.4376,9.57537 85.5,8.5 Z"/></g>
<g><path style="opacity:1" fill="#501477" d="M 283.5,19.5 C 276.646,19.824 269.979,19.4907 263.5,18.5C 266.123,14.0979 269.123,9.93122 272.5,6C 279.492,5.50038 286.492,5.33371 293.5,5.5C 293.509,7.30839 293.009,8.97506 292,10.5C 290.088,12.6572 288.421,14.9906 287,17.5C 286.184,18.8228 285.017,19.4894 283.5,19.5 Z M 280.5,8.5 C 281.239,8.36899 281.906,8.53566 282.5,9C 280.877,11.0795 279.377,13.2462 278,15.5C 277.163,17.0074 275.996,17.5074 274.5,17C 276.72,14.2872 278.72,11.4539 280.5,8.5 Z"/></g>
<g><path style="opacity:1" fill="#511778" d="M 51.5,5.5 C 57.8421,5.33379 64.1754,5.50046 70.5,6C 73.0175,8.19356 72.6841,10.1936 69.5,12C 68.1667,12.3333 66.8333,12.6667 65.5,13C 66.428,13.3879 67.0946,14.0546 67.5,15C 66.6413,17.0532 65.3079,18.7199 63.5,20C 56.1667,20.6667 48.8333,20.6667 41.5,20C 45.0539,15.2863 48.3872,10.453 51.5,5.5 Z M 59.5,8.5 C 61.0281,8.51731 61.5281,9.18398 61,10.5C 57.1887,11.9662 56.6887,11.2996 59.5,8.5 Z M 55.5,14.5 C 58.0118,15.2162 58.0118,16.2162 55.5,17.5C 54.4376,16.5754 54.4376,15.5754 55.5,14.5 Z"/></g>
<g><path style="opacity:1" fill="#531b79" d="M 108.5,19.5 C 105.5,19.5 102.5,19.5 99.5,19.5C 101.489,16.1944 103.489,12.8611 105.5,9.5C 104.5,8.83333 103.5,8.16667 102.5,7.5C 102.667,7.16667 102.833,6.83333 103,6.5C 109.444,5.19004 115.944,5.19004 122.5,6.5C 120.941,8.13067 118.941,8.96401 116.5,9C 113.934,12.6584 111.268,16.1584 108.5,19.5 Z"/></g>
<g><path style="opacity:1" fill="#541c7a" d="M 250.5,5.5 C 253.85,5.33499 257.183,5.50166 260.5,6C 258.22,9.94673 255.553,13.6134 252.5,17C 255.226,17.1816 257.893,17.6816 260.5,18.5C 260.333,18.8333 260.167,19.1667 260,19.5C 253.582,20.6433 247.082,20.81 240.5,20C 243.273,14.7359 246.607,9.90254 250.5,5.5 Z"/></g>
<g><path style="opacity:1" fill="#83599c" d="M 219.5,18.5 C 225.31,19.4896 231.31,19.8229 237.5,19.5C 231.322,20.8174 224.988,20.8174 218.5,19.5C 218.624,18.8933 218.957,18.56 219.5,18.5 Z"/></g>
<g><path style="opacity:1" fill="#8762a0" d="M 263.5,18.5 C 269.979,19.4907 276.646,19.824 283.5,19.5C 276.656,20.8188 269.656,20.8188 262.5,19.5C 262.624,18.8933 262.957,18.56 263.5,18.5 Z"/></g>
<g><path style="opacity:1" fill="#817d83" d="M 99.5,19.5 C 102.5,19.5 105.5,19.5 108.5,19.5C 106.031,20.3171 103.365,20.8171 100.5,21C 104.167,21.1667 107.833,21.3333 111.5,21.5C 115.565,21.4888 119.232,20.8222 122.5,19.5C 125.5,19.5 128.5,19.5 131.5,19.5C 129.369,20.3138 127.036,20.8138 124.5,21C 127.167,21.1667 129.833,21.3333 132.5,21.5C 135.59,21.4783 138.257,20.8117 140.5,19.5C 146.833,19.5 153.167,19.5 159.5,19.5C 158.924,21.7833 159.924,22.1166 162.5,20.5C 163.167,20.5 163.833,20.5 164.5,20.5C 166.5,21.8333 168.5,21.8333 170.5,20.5C 173.833,20.5 177.167,20.5 180.5,20.5C 181.833,21.8333 183.167,21.8333 184.5,20.5C 185.167,20.5 185.833,20.5 186.5,20.5C 226.833,21.1667 267.167,21.8333 307.5,22.5C 210.5,22.5 113.5,22.5 16.5,22.5C 37.8333,21.8333 59.1667,21.1667 80.5,20.5C 80.8333,20.5 81.1667,20.5 81.5,20.5C 84.3138,21.1647 87.3138,21.498 90.5,21.5C 93.9134,21.483 96.9134,20.8164 99.5,19.5 Z"/></g>
<g><path style="opacity:1" fill="#0f0e10" d="M 16.5,22.5 C 113.5,22.5 210.5,22.5 307.5,22.5C 302.792,44.9992 297.292,67.3326 291,89.5C 287.767,97.6361 283.267,104.969 277.5,111.5C 288.752,119.916 298.919,129.583 308,140.5C 308.562,142.866 308.396,145.199 307.5,147.5C 309.33,153.162 311.163,158.828 313,164.5C 313.879,169.287 313.545,173.953 312,178.5C 306.298,183.011 301.131,188.178 296.5,194C 292.637,195.732 288.637,197.066 284.5,198C 277.452,208.028 267.785,213.694 255.5,215C 249.5,215.667 243.5,215.667 237.5,215C 236.35,212.538 235.017,210.204 233.5,208C 231.5,207.333 229.5,207.333 227.5,208C 215.789,214.548 205.789,223.048 197.5,233.5C 197.167,233.5 196.833,233.5 196.5,233.5C 198.516,221.076 196.349,209.41 190,198.5C 179.653,184.15 166.82,172.65 151.5,164C 122.24,147.704 91.5731,134.704 59.5,125C 42.6982,119.954 25.8648,115.12 9,110.5C 8.67168,107.793 9.00501,105.126 10,102.5C 16.7333,80.7328 23.2333,58.8994 29.5,37C 26.9523,31.692 22.9523,27.692 17.5,25C 16.001,24.1618 15.6676,23.3285 16.5,22.5 Z"/></g>
<g><path style="opacity:1" fill="#3b085a" d="M 300.5,28.5 C 210.665,28.1673 120.998,28.5006 31.5,29.5C 30.9569,29.44 30.6236,29.1067 30.5,28.5C 120.666,27.1679 210.666,27.1679 300.5,28.5 Z"/></g>
<g><path style="opacity:1" fill="#4a0a72" d="M 300.5,28.5 C 296.19,47.5496 291.69,66.5496 287,85.5C 283.161,95.6682 277.328,104.502 269.5,112C 281.904,120.403 293.071,130.236 303,141.5C 303.333,145.833 303.667,150.167 304,154.5C 308.959,161.756 309.625,169.423 306,177.5C 304.421,179.041 302.587,180.208 300.5,181C 296.212,188.821 289.545,193.155 280.5,194C 270.33,207.81 256.663,213.31 239.5,210.5C 238.526,203.348 234.526,200.181 227.5,201C 218.181,205.817 209.848,211.984 202.5,219.5C 201.379,212.636 199.545,205.97 197,199.5C 185.126,182.451 169.959,168.951 151.5,159C 108.151,137.004 62.8173,120.004 15.5,108C 14.4238,106.274 14.2571,104.441 15,102.5C 21.1749,81.4703 27.5083,60.4703 34,39.5C 34.9761,35.673 34.1428,32.3396 31.5,29.5C 120.998,28.5006 210.665,28.1673 300.5,28.5 Z"/></g>
<g><path style="opacity:1" fill="#9e9aa0" d="M 219.5,79.5 C 223.216,81.5437 226.049,84.5437 228,88.5C 234.221,94.7208 240.221,100.721 246,106.5C 235.454,101.477 224.954,96.3105 214.5,91C 216.308,87.2188 217.974,83.3854 219.5,79.5 Z"/></g>
<g><path style="opacity:1" fill="#4b0971" d="M 263.5,67.5 C 265.833,67.5 268.167,67.5 270.5,67.5C 269.646,72.231 268.48,76.8977 267,81.5C 266.065,84.5952 264.231,86.9286 261.5,88.5C 262.197,82.3778 263.53,76.3778 265.5,70.5C 265.043,69.7025 264.376,69.3691 263.5,69.5C 263.5,68.8333 263.5,68.1667 263.5,67.5 Z"/></g>
<g><path style="opacity:1" fill="#0d0a0f" d="M 173.5,68.5 C 174.649,68.7911 175.316,69.6244 175.5,71C 174.324,80.2179 170.657,88.2179 164.5,95C 162.725,96.4389 160.725,97.4389 158.5,98C 151.321,98.8213 144.321,98.6546 137.5,97.5C 151.896,101.044 162.396,96.377 169,83.5C 170.585,78.383 172.085,73.383 173.5,68.5 Z"/></g>
<g><path style="opacity:1" fill="#7b5d8c" d="M 251.5,68.5 C 252.209,67.596 253.209,67.2627 254.5,67.5C 257.5,67.5 260.5,67.5 263.5,67.5C 263.5,68.1667 263.5,68.8333 263.5,69.5C 263.167,69.5 262.833,69.5 262.5,69.5C 259.038,68.5184 255.371,68.185 251.5,68.5 Z"/></g>
<g><path style="opacity:1" fill="#141318" d="M 254.5,65.5 C 260.206,65.1712 265.872,65.5046 271.5,66.5C 271.376,67.1067 271.043,67.44 270.5,67.5C 268.167,67.5 265.833,67.5 263.5,67.5C 260.5,67.5 257.5,67.5 254.5,67.5C 254.5,66.8333 254.5,66.1667 254.5,65.5 Z"/></g>
<g><path style="opacity:1" fill="#0a090c" d="M 144.5,33.5 C 145.117,33.6107 145.617,33.944 146,34.5C 145.303,42.6323 143.636,50.6323 141,58.5C 140.027,60.64 138.527,62.3067 136.5,63.5C 137.396,73.6015 135.563,83.2681 131,92.5C 128.9,95.4668 126.066,97.3002 122.5,98C 114.988,98.8218 107.655,98.6552 100.5,97.5C 106.69,97.8229 112.69,97.4896 118.5,96.5C 123.809,96.0337 127.643,93.367 130,88.5C 133.522,80.0719 135.022,71.4052 134.5,62.5C 136.192,60.6414 137.692,58.6414 139,56.5C 140.995,48.8543 142.828,41.1877 144.5,33.5 Z"/></g>
<g><path style="opacity:1" fill="#0d0b0f" d="M 71.5,33.5 C 72.1174,33.6107 72.6174,33.944 73,34.5C 72.3075,42.6171 70.6408,50.6171 68,58.5C 67.0267,60.64 65.5267,62.3067 63.5,63.5C 64.4441,73.6166 62.6108,83.2833 58,92.5C 55.8995,95.4668 53.0662,97.3002 49.5,98C 41.9882,98.8218 34.6549,98.6552 27.5,97.5C 33.69,97.8229 39.69,97.4896 45.5,96.5C 51.5461,95.6302 55.7128,92.2969 58,86.5C 59.3353,81.162 60.6686,75.8287 62,70.5C 62.7284,67.7695 62.5617,65.1029 61.5,62.5C 63.1924,60.6414 64.6924,58.6414 66,56.5C 68.0014,48.8296 69.8347,41.1629 71.5,33.5 Z"/></g>
<g><path style="opacity:1" fill="#0d0b0f" d="M 284.5,59.5 C 284.833,59.5 285.167,59.5 285.5,59.5C 286.497,59.4701 287.164,59.9701 287.5,61C 285.053,68.0092 283.219,75.1758 282,82.5C 280.921,89.8683 277.088,95.035 270.5,98C 262.323,98.8228 254.323,98.6561 246.5,97.5C 253.175,97.6663 259.842,97.4996 266.5,97C 272.885,95.7373 276.719,91.904 278,85.5C 280.285,76.8221 282.451,68.1554 284.5,59.5 Z"/></g>
<g><path style="opacity:1" fill="#745e80" d="M 269.5,57.5 C 271.833,57.5 274.167,57.5 276.5,57.5C 279.5,57.5 282.5,57.5 285.5,57.5C 285.5,58.1667 285.5,58.8333 285.5,59.5C 285.167,59.5 284.833,59.5 284.5,59.5C 279.5,58.8333 274.5,58.1667 269.5,57.5 Z"/></g>
<g><path style="opacity:1" fill="#4d1173" d="M 277.5,41.5 C 276.439,45.6357 275.439,49.8024 274.5,54C 274.836,55.0299 275.503,55.5299 276.5,55.5C 276.5,56.1667 276.5,56.8333 276.5,57.5C 274.167,57.5 271.833,57.5 269.5,57.5C 269.674,54.1262 270.174,50.7928 271,47.5C 272.406,44.5914 274.572,42.5914 277.5,41.5 Z"/></g>
<g><path style="opacity:1" fill="#100d12" d="M 277.5,41.5 C 274.572,42.5914 272.406,44.5914 271,47.5C 270.174,50.7928 269.674,54.1262 269.5,57.5C 268.5,57.5 267.5,57.5 266.5,57.5C 266.398,50.6309 268.731,44.7976 273.5,40C 275.463,39.1558 276.796,39.6558 277.5,41.5 Z"/></g>
<g><path style="opacity:1" fill="#120e14" d="M 219.5,32.5 C 219.833,32.5 220.167,32.5 220.5,32.5C 221.167,32.5 221.833,32.5 222.5,32.5C 221.513,34.4734 220.513,36.4734 219.5,38.5C 223.459,39.3265 227.459,39.8265 231.5,40C 230.944,40.3826 230.611,40.8826 230.5,41.5C 227.102,41.1796 223.768,41.513 220.5,42.5C 216.04,57.6735 212.207,73.0068 209,88.5C 208.23,89.5981 207.397,89.5981 206.5,88.5C 210.835,69.8245 215.168,51.1578 219.5,32.5 Z"/></g>
<g><path style="opacity:1" fill="#100e11" d="M 170.5,39.5 C 166.98,40.1828 164.48,42.1828 163,45.5C 158.849,60.1059 155.015,74.7726 151.5,89.5C 150.5,89.5 149.5,89.5 148.5,89.5C 152.143,74.0647 156.309,58.7314 161,43.5C 163.077,38.8788 166.577,37.0454 171.5,38C 170.944,38.3826 170.611,38.8826 170.5,39.5 Z"/></g>
<g><path style="opacity:1" fill="#0e0c0f" d="M 107.5,33.5 C 108.117,33.6107 108.617,33.944 109,34.5C 105.917,53.4973 101.251,72.1639 95,90.5C 90.1214,96.8574 83.6214,99.5241 75.5,98.5C 72.6445,98.4975 69.9779,98.1641 67.5,97.5C 76.1899,98.6555 84.0233,96.6555 91,91.5C 92.3333,88.8333 93.6667,86.1667 95,83.5C 99.4902,66.8725 103.657,50.2058 107.5,33.5 Z"/></g>
<g><path style="opacity:1" fill="#151417" d="M 291.5,32.5 C 291.833,32.5 292.167,32.5 292.5,32.5C 293.376,32.3691 294.043,32.7025 294.5,33.5C 291.869,41.3557 289.869,49.3557 288.5,57.5C 287.5,57.5 286.5,57.5 285.5,57.5C 282.5,57.5 279.5,57.5 276.5,57.5C 276.5,56.8333 276.5,56.1667 276.5,55.5C 279.777,55.7839 282.943,55.4505 286,54.5C 287.837,47.1533 289.67,39.8199 291.5,32.5 Z"/></g>
<g><path style="opacity:1" fill="#100c12" d="M 254.5,32.5 C 255.376,32.3691 256.043,32.7025 256.5,33.5C 255.833,35.8333 255.167,38.1667 254.5,40.5C 250.717,40.9467 247.217,41.9467 244,43.5C 240.743,57.3424 236.909,71.009 232.5,84.5C 231.478,84.1445 230.811,83.4778 230.5,82.5C 234.614,68.6403 238.614,54.6403 242.5,40.5C 245.768,39.513 249.102,39.1796 252.5,39.5C 252.41,36.8478 253.076,34.5145 254.5,32.5 Z"/></g>
<g><path style="opacity:1" fill="#9d9b9e" d="M 254.5,32.5 C 253.076,34.5145 252.41,36.8478 252.5,39.5C 249.102,39.1796 245.768,39.513 242.5,40.5C 238.614,54.6403 234.614,68.6403 230.5,82.5C 227.259,79.4275 224.593,75.9275 222.5,72C 225.089,61.812 227.755,51.6453 230.5,41.5C 230.611,40.8826 230.944,40.3826 231.5,40C 227.459,39.8265 223.459,39.3265 219.5,38.5C 220.513,36.4734 221.513,34.4734 222.5,32.5C 233.295,31.2026 243.961,31.2026 254.5,32.5 Z"/></g>
<g><path style="opacity:1" fill="#121014" d="M 182.5,32.5 C 183.586,32.62 184.253,33.2867 184.5,34.5C 182.354,42.0813 180.687,49.7479 179.5,57.5C 175.671,58.069 172.337,57.4023 169.5,55.5C 172.119,55.7683 174.619,55.435 177,54.5C 178.528,47.0527 180.362,39.7193 182.5,32.5 Z"/></g>
<g><path style="opacity:1" fill="#9d9a9f" d="M 182.5,32.5 C 180.362,39.7193 178.528,47.0527 177,54.5C 174.619,55.435 172.119,55.7683 169.5,55.5C 168.325,55.719 167.325,55.3857 166.5,54.5C 168.578,49.6946 169.912,44.6946 170.5,39.5C 170.611,38.8826 170.944,38.3826 171.5,38C 166.577,37.0454 163.077,38.8788 161,43.5C 156.309,58.7314 152.143,74.0647 148.5,89.5C 149.5,89.5 150.5,89.5 151.5,89.5C 155.382,88.7892 157.882,86.4558 159,82.5C 160.172,77.1463 161.339,71.813 162.5,66.5C 166.649,65.9197 170.316,66.5864 173.5,68.5C 172.085,73.383 170.585,78.383 169,83.5C 162.396,96.377 151.896,101.044 137.5,97.5C 136.325,97.719 135.325,97.3857 134.5,96.5C 139.772,78.9813 144.606,61.3146 149,43.5C 150.689,38.4748 153.856,34.6415 158.5,32C 166.677,31.1772 174.677,31.3439 182.5,32.5 Z"/></g>
<g><path style="opacity:1" fill="#9d9b9f" d="M 107.5,33.5 C 103.657,50.2058 99.4902,66.8725 95,83.5C 93.6667,86.1667 92.3333,88.8333 91,91.5C 84.0233,96.6555 76.1899,98.6555 67.5,97.5C 62.8183,95.7524 61.3183,92.419 63,87.5C 67.6691,71.4783 72.3358,55.4783 77,39.5C 78.8333,36.3333 81.3333,33.8333 84.5,32C 91.8333,31.3333 99.1667,31.3333 106.5,32C 107.056,32.3826 107.389,32.8826 107.5,33.5 Z"/></g>
<g><path style="opacity:1" fill="#4a0a71" d="M 95.5,38.5 C 91.16,54.8583 86.66,71.1916 82,87.5C 80.8714,90.5487 79.0381,91.882 76.5,91.5C 80.84,75.1417 85.34,58.8084 90,42.5C 91.451,40.5359 93.2843,39.2026 95.5,38.5 Z"/></g>
<g><path style="opacity:1" fill="#0e0c10" d="M 95.5,38.5 C 93.2843,39.2026 91.451,40.5359 90,42.5C 85.34,58.8084 80.84,75.1417 76.5,91.5C 75.3065,91.0296 74.6399,90.0296 74.5,88.5C 78.6917,72.4236 83.1917,56.4236 88,40.5C 90.0696,37.5924 92.5696,36.9257 95.5,38.5 Z"/></g>
<g><path style="opacity:1" fill="#9d9b9f" d="M 271.5,31.5 C 278.354,31.176 285.021,31.5093 291.5,32.5C 289.67,39.8199 287.837,47.1533 286,54.5C 282.943,55.4505 279.777,55.7839 276.5,55.5C 275.503,55.5299 274.836,55.0299 274.5,54C 275.439,49.8024 276.439,45.6357 277.5,41.5C 276.796,39.6558 275.463,39.1558 273.5,40C 268.731,44.7976 266.398,50.6309 266.5,57.5C 267.5,57.5 268.5,57.5 269.5,57.5C 274.5,58.1667 279.5,58.8333 284.5,59.5C 282.451,68.1554 280.285,76.8221 278,85.5C 276.719,91.904 272.885,95.7373 266.5,97C 259.842,97.4996 253.175,97.6663 246.5,97.5C 245.325,97.719 244.325,97.3857 243.5,96.5C 246.173,87.1376 248.84,77.8043 251.5,68.5C 255.371,68.185 259.038,68.5184 262.5,69.5C 261.006,75.8091 259.672,82.1424 258.5,88.5C 259.5,88.5 260.5,88.5 261.5,88.5C 264.231,86.9286 266.065,84.5952 267,81.5C 268.48,76.8977 269.646,72.231 270.5,67.5C 271.043,67.44 271.376,67.1067 271.5,66.5C 265.872,65.5046 260.206,65.1712 254.5,65.5C 253.414,65.38 252.747,64.7133 252.5,63.5C 254.649,56.5938 256.482,49.5938 258,42.5C 261.216,37.1045 265.716,33.4378 271.5,31.5 Z"/></g>
<g><path style="opacity:1" fill="#121013" d="M 262.5,69.5 C 262.833,69.5 263.167,69.5 263.5,69.5C 264.376,69.3691 265.043,69.7025 265.5,70.5C 263.53,76.3778 262.197,82.3778 261.5,88.5C 260.5,88.5 259.5,88.5 258.5,88.5C 259.672,82.1424 261.006,75.8091 262.5,69.5 Z"/></g>
<g><path style="opacity:1" fill="#9c999e" d="M 194.5,31.5 C 203.017,31.1739 211.35,31.5073 219.5,32.5C 215.168,51.1578 210.835,69.8245 206.5,88.5C 202.884,87.1253 199.384,85.4586 196,83.5C 196.518,77.4196 197.684,71.4196 199.5,65.5C 197.105,64.1857 194.605,64.1857 192,65.5C 190.358,70.4023 189.191,75.4023 188.5,80.5C 184.426,85.7342 182.76,91.7342 183.5,98.5C 180.482,98.6646 177.482,98.498 174.5,98C 173.422,97.3261 172.755,96.3261 172.5,95C 177.769,75.0915 183.269,55.2582 189,35.5C 190.257,33.2542 192.09,31.9209 194.5,31.5 Z"/></g>
<g><path style="opacity:1" fill="#0f0e10" d="M 199.5,65.5 C 197.833,65.5 196.167,65.5 194.5,65.5C 193.289,70.4643 192.289,75.4643 191.5,80.5C 190.5,80.5 189.5,80.5 188.5,80.5C 189.191,75.4023 190.358,70.4023 192,65.5C 194.605,64.1857 197.105,64.1857 199.5,65.5 Z"/></g>
<g><path style="opacity:1" fill="#490b70" d="M 206.5,38.5 C 204.91,44.7839 203.577,51.1172 202.5,57.5C 200.833,57.5 199.167,57.5 197.5,57.5C 198.504,52.4843 199.67,47.4843 201,42.5C 201.875,39.7854 203.708,38.4521 206.5,38.5 Z"/></g>
<g><path style="opacity:1" fill="#100f10" d="M 206.5,38.5 C 203.708,38.4521 201.875,39.7854 201,42.5C 199.67,47.4843 198.504,52.4843 197.5,57.5C 196.5,57.5 195.5,57.5 194.5,57.5C 195.865,51.0392 197.699,44.7059 200,38.5C 202.274,37.1888 204.44,37.1888 206.5,38.5 Z"/></g>
<g><path style="opacity:1" fill="#9d9b9f" d="M 71.5,33.5 C 69.8347,41.1629 68.0014,48.8296 66,56.5C 64.6924,58.6414 63.1924,60.6414 61.5,62.5C 62.5617,65.1029 62.7284,67.7695 62,70.5C 60.6686,75.8287 59.3353,81.162 58,86.5C 55.7128,92.2969 51.5461,95.6302 45.5,96.5C 38.6457,96.824 31.979,96.4907 25.5,95.5C 30.5621,74.3171 36.2288,53.3171 42.5,32.5C 51.4815,31.3347 60.4815,31.168 69.5,32C 70.0442,32.7172 70.7109,33.2172 71.5,33.5 Z"/></g>
<g><path style="opacity:1" fill="#4a0970" d="M 51.5,65.5 C 50.38,72.6482 48.5467,79.9815 46,87.5C 44.951,89.1066 43.451,89.7733 41.5,89.5C 43.0148,82.1076 44.8481,74.7742 47,67.5C 48.049,65.8934 49.549,65.2267 51.5,65.5 Z"/></g>
<g><path style="opacity:1" fill="#100e11" d="M 51.5,65.5 C 49.549,65.2267 48.049,65.8934 47,67.5C 44.8481,74.7742 43.0148,82.1076 41.5,89.5C 40.5,89.5 39.5,89.5 38.5,89.5C 40.6563,81.2081 42.6563,72.8748 44.5,64.5C 47.0593,64.1984 49.3926,64.5318 51.5,65.5 Z"/></g>
<g><path style="opacity:1" fill="#490970" d="M 59.5,38.5 C 58.1604,44.1909 56.6604,49.8576 55,55.5C 53.8904,57.0368 52.3904,57.7035 50.5,57.5C 51.6724,51.1424 53.0057,44.8091 54.5,38.5C 56.1667,38.5 57.8333,38.5 59.5,38.5 Z"/></g>
<g><path style="opacity:1" fill="#0f0e10" d="M 59.5,38.5 C 57.8333,38.5 56.1667,38.5 54.5,38.5C 53.0057,44.8091 51.6724,51.1424 50.5,57.5C 49.5,57.5 48.5,57.5 47.5,57.5C 48.6943,51.0569 50.361,44.7235 52.5,38.5C 54.9732,37.2031 57.3066,37.2031 59.5,38.5 Z"/></g>
<g><path style="opacity:1" fill="#9d9b9f" d="M 144.5,33.5 C 142.828,41.1877 140.995,48.8543 139,56.5C 137.692,58.6414 136.192,60.6414 134.5,62.5C 135.022,71.4052 133.522,80.0719 130,88.5C 127.643,93.367 123.809,96.0337 118.5,96.5C 111.646,96.824 104.979,96.4907 98.5,95.5C 103.385,74.295 109.051,53.295 115.5,32.5C 125.406,30.9042 135.073,31.2375 144.5,33.5 Z"/></g>
<g><path style="opacity:1" fill="#4a0a6f" d="M 124.5,65.5 C 123.38,72.6482 121.547,79.9815 119,87.5C 117.89,89.0368 116.39,89.7035 114.5,89.5C 116.013,82.1163 117.846,74.783 120,67.5C 121.049,65.8934 122.549,65.2267 124.5,65.5 Z"/></g>
<g><path style="opacity:1" fill="#100f11" d="M 124.5,65.5 C 122.549,65.2267 121.049,65.8934 120,67.5C 117.846,74.783 116.013,82.1163 114.5,89.5C 113.5,89.5 112.5,89.5 111.5,89.5C 113.344,81.1252 115.344,72.7919 117.5,64.5C 120.059,64.1984 122.393,64.5318 124.5,65.5 Z"/></g>
<g><path style="opacity:1" fill="#4a0b6f" d="M 132.5,38.5 C 131.181,43.4449 130.014,48.4449 129,53.5C 128.125,56.2146 126.292,57.5479 123.5,57.5C 124.421,51.0727 125.754,44.7394 127.5,38.5C 129.167,38.5 130.833,38.5 132.5,38.5 Z"/></g>
<g><path style="opacity:1" fill="#0e0c0f" d="M 132.5,38.5 C 130.833,38.5 129.167,38.5 127.5,38.5C 125.754,44.7394 124.421,51.0727 123.5,57.5C 122.5,57.5 121.5,57.5 120.5,57.5C 121.762,50.7171 123.429,44.0505 125.5,37.5C 128.059,37.1984 130.393,37.5318 132.5,38.5 Z"/></g>
<g><path style="opacity:1" fill="#735089" d="M 271.5,31.5 C 274.817,30.8348 278.317,30.5014 282,30.5C 285.902,30.5123 289.402,31.179 292.5,32.5C 292.167,32.5 291.833,32.5 291.5,32.5C 285.021,31.5093 278.354,31.176 271.5,31.5 Z"/></g>
<g><path style="opacity:1" fill="#6b4284" d="M 194.5,31.5 C 198.653,30.8343 202.987,30.5009 207.5,30.5C 212.222,30.5079 216.555,31.1745 220.5,32.5C 220.167,32.5 219.833,32.5 219.5,32.5C 211.35,31.5073 203.017,31.1739 194.5,31.5 Z"/></g>
<g><path style="opacity:1" fill="#9e9ca0" d="M 138.5,142.5 C 155.662,141.668 172.995,141.168 190.5,141C 189.473,140.487 188.473,139.987 187.5,139.5C 175.278,136.24 162.945,133.407 150.5,131C 131.794,128.733 113.794,126.566 96.5,124.5C 118.503,124.667 140.503,124.5 162.5,124C 160.355,122.711 158.022,121.878 155.5,121.5C 117.062,114.488 78.3955,109.155 39.5,105.5C 85.6637,104.501 131.997,104.168 178.5,104.5C 181.803,107.158 185.136,109.825 188.5,112.5C 188.462,105.624 188.628,98.6239 189,91.5C 189.196,89.7139 190.029,88.3805 191.5,87.5C 219.987,100.574 248.654,113.407 277.5,126C 283.958,130.124 289.458,135.29 294,141.5C 295.806,150.081 298.306,158.414 301.5,166.5C 298.833,166.5 296.167,166.5 293.5,166.5C 296.47,181.366 291.136,185.533 277.5,179C 274.794,176.629 272.461,173.963 270.5,171C 262.167,170.333 253.833,170.333 245.5,171C 242.371,171.117 241.205,172.617 242,175.5C 246.128,184.964 252.462,192.631 261,198.5C 261.507,199.996 261.007,201.163 259.5,202C 251.958,204.229 245.958,202.229 241.5,196C 232.81,191.094 224.476,191.761 216.5,198C 213.688,199.977 211.022,202.144 208.5,204.5C 206.266,191.868 200.266,181.368 190.5,173C 174.543,160.52 157.21,150.354 138.5,142.5 Z"/></g>
<g><path style="opacity:1" fill="#5e5a60" d="M 25.5,95.5 C 31.979,96.4907 38.6457,96.824 45.5,96.5C 39.69,97.4896 33.69,97.8229 27.5,97.5C 26.325,97.719 25.325,97.3857 24.5,96.5C 24.6236,95.8933 24.9569,95.56 25.5,95.5 Z"/></g>
<g><path style="opacity:1" fill="#5e5a60" d="M 98.5,95.5 C 104.979,96.4907 111.646,96.824 118.5,96.5C 112.69,97.4896 106.69,97.8229 100.5,97.5C 99.325,97.719 98.325,97.3857 97.5,96.5C 97.6236,95.8933 97.9569,95.56 98.5,95.5 Z"/></g>
<g><path style="opacity:1" fill="#63337c" d="M 178.5,104.5 C 131.997,104.168 85.6637,104.501 39.5,105.5C 38.9569,105.44 38.6236,105.107 38.5,104.5C 85.3316,103.169 131.998,103.169 178.5,104.5 Z"/></g>
<g><path style="opacity:1" fill="#4e1174" d="M 196.5,98.5 C 197.251,97.4265 198.251,97.2599 199.5,98C 209.176,102.838 218.842,107.671 228.5,112.5C 224.153,113.222 219.82,113.888 215.5,114.5C 215.251,113.418 215.085,112.085 215,110.5C 209.401,105.618 203.235,101.618 196.5,98.5 Z"/></g>
<g><path style="opacity:1" fill="#5e317a" d="M 155.5,121.5 C 158.022,121.878 160.355,122.711 162.5,124C 140.503,124.5 118.503,124.667 96.5,124.5C 116.355,124.163 136.021,123.163 155.5,121.5 Z"/></g>
<g><path style="opacity:1" fill="#4f1375" d="M 202.5,124.5 C 225.679,123.451 248.346,126.284 270.5,133C 280.09,136.923 286.59,143.756 290,153.5C 290.667,155.833 290.667,158.167 290,160.5C 286.3,156.465 282.3,152.798 278,149.5C 278.194,145.74 277.027,142.574 274.5,140C 270.082,138.194 265.749,136.194 261.5,134C 241.727,129.823 222.061,126.656 202.5,124.5 Z"/></g>
<g><path style="opacity:1" fill="#633a7c" d="M 187.5,139.5 C 188.473,139.987 189.473,140.487 190.5,141C 172.995,141.168 155.662,141.668 138.5,142.5C 137.957,142.44 137.624,142.107 137.5,141.5C 154.328,140.833 170.995,140.167 187.5,139.5 Z"/></g>
<g><path style="opacity:1" fill="#501675" d="M 218.5,138.5 C 231.197,138.273 243.863,138.773 256.5,140C 272.622,144.796 283.456,154.963 289,170.5C 280.723,157.216 269.223,148.05 254.5,143C 242.177,141.706 230.177,140.206 218.5,138.5 Z"/></g>
<g><path style="opacity:1" fill="#e2d8e8" d="M 283.5,147.5 C 282.833,148.167 282.167,148.833 281.5,149.5C 279.267,147.783 279.267,145.783 281.5,143.5C 283.111,144.32 283.778,145.654 283.5,147.5 Z"/></g>
<g><path style="opacity:1" fill="#4a0e70" d="M 289.5,145.5 C 290.496,145.414 291.329,145.748 292,146.5C 292.798,148.259 292.631,149.926 291.5,151.5C 290.523,149.589 289.857,147.589 289.5,145.5 Z"/></g>
<g><path style="opacity:1" fill="#541e76" d="M 231.5,143.5 C 255.294,142.071 273.294,151.405 285.5,171.5C 280.328,166.526 274.661,161.36 268.5,156C 252.891,147.597 236.225,143.93 218.5,145C 223.019,144.825 227.353,144.325 231.5,143.5 Z"/></g>
<g><path style="opacity:1" fill="#a081b3" d="M 283.5,147.5 C 284.1,148.9 285.1,149.9 286.5,150.5C 285.209,150.263 284.209,150.596 283.5,151.5C 282.5,151.167 281.833,150.5 281.5,149.5C 282.167,148.833 282.833,148.167 283.5,147.5 Z"/></g>
<g><path style="opacity:1" fill="#ece5ef" d="M 283.5,151.5 C 284.209,150.596 285.209,150.263 286.5,150.5C 287.782,151.708 287.782,153.042 286.5,154.5C 285.712,153.23 284.712,152.23 283.5,151.5 Z"/></g>
<g><path style="opacity:1" fill="#4e1074" d="M 229.5,149.5 C 250.572,148.204 267.572,155.871 280.5,172.5C 280.333,172.833 280.167,173.167 280,173.5C 271.667,164.418 261.5,158.585 249.5,156C 243.833,155.333 238.167,155.333 232.5,156C 231.376,156.249 230.376,156.749 229.5,157.5C 230.48,158.981 231.647,160.315 233,161.5C 233.667,162.167 233.667,162.833 233,163.5C 222.219,169.035 215.219,177.702 212,189.5C 211.235,178.81 214.402,169.477 221.5,161.5C 220.699,158.867 219.033,157.033 216.5,156C 220.647,153.26 224.98,151.093 229.5,149.5 Z"/></g>
<g><path style="opacity:1" fill="#ede7f1" d="M 295.5,168.5 C 304.045,168.752 304.712,171.085 297.5,175.5C 296.365,173.293 295.699,170.96 295.5,168.5 Z"/></g>
<g><path style="opacity:1" fill="#ede7f1" d="M 265.5,172.5 C 269.195,174.678 272.528,177.511 275.5,181C 274.101,181.595 272.768,181.428 271.5,180.5C 270.676,177.337 268.676,175.67 265.5,175.5C 265.5,174.5 265.5,173.5 265.5,172.5 Z"/></g>
<g><path style="opacity:1" fill="#ece5ef" d="M 247.5,175.5 C 249.164,176.949 249.998,178.949 250,181.5C 251.821,184.254 253.987,186.754 256.5,189C 257.187,190.162 257.353,191.328 257,192.5C 254.37,188.868 251.37,185.535 248,182.5C 246.336,180.214 246.17,177.881 247.5,175.5 Z"/></g>
<g><path style="opacity:1" fill="#eae3ee" d="M 276.5,182.5 C 278.423,182.795 280.09,183.628 281.5,185C 278.509,187.246 275.176,188.246 271.5,188C 273.373,186.296 275.04,184.463 276.5,182.5 Z"/></g>
<g><path style="opacity:1" fill="#ddd2e3" d="M 266.5,193.5 C 267.552,193.351 268.552,193.517 269.5,194C 266.528,197.402 263.528,197.736 260.5,195C 262.708,194.809 264.708,194.309 266.5,193.5 Z"/></g>
</svg>
