<?xml version="1.0" encoding="UTF-8"?>
<svg version="1.1" xmlns="http://www.w3.org/2000/svg" width="1394" height="241">
<path d="M0 0 C11.55 0 23.1 0 35 0 C35.76887696 3.07550786 36.1636355 5.39634368 36.29711914 8.49316406 C36.3570681 9.81408051 36.3570681 9.81408051 36.41822815 11.16168213 C36.45681442 12.10348328 36.4954007 13.04528442 36.53515625 14.015625 C36.57813339 14.98659119 36.62111053 15.95755737 36.66539001 16.95794678 C36.80159681 20.0551445 36.93211905 23.15255209 37.0625 26.25 C37.15392224 28.35157883 37.24571469 30.45314159 37.33789062 32.5546875 C37.56288789 37.70294847 37.78278772 42.85140493 38 48 C38.2461203 47.44289841 38.4922406 46.88579681 38.74581909 46.31181335 C41.30553676 40.51929059 43.86915591 34.72850627 46.43505859 28.9387207 C47.39244372 26.77705612 48.34882956 24.61494867 49.30419922 22.45239258 C50.67674151 19.34600014 52.05285695 16.24121246 53.4296875 13.13671875 C53.85684052 12.16788254 54.28399353 11.19904633 54.72409058 10.20085144 C55.32448654 8.84979057 55.32448654 8.84979057 55.93701172 7.47143555 C56.46329666 6.28229805 56.46329666 6.28229805 57.00021362 5.06913757 C58 3 58 3 60 0 C62.69540315 -0.26686213 65.15847464 -0.34818073 67.8515625 -0.29296875 C68.62559418 -0.28872391 69.39962585 -0.28447906 70.19711304 -0.28010559 C72.67342677 -0.26328998 75.14893158 -0.22563395 77.625 -0.1875 C79.30207159 -0.17245682 80.97915592 -0.15876778 82.65625 -0.14648438 C86.77114581 -0.11337721 90.88543569 -0.06157637 95 0 C91.76588112 16.35377169 88.42845311 32.6834091 84.97802734 48.99291992 C84.23365452 52.5148368 83.49375486 56.03767714 82.75390625 59.56054688 C82.27891406 61.80995249 81.80366411 64.0593037 81.328125 66.30859375 C81.10835999 67.35728134 80.88859497 68.40596893 80.66217041 69.48643494 C80.45815613 70.44667068 80.25414185 71.40690643 80.04394531 72.39624023 C79.86583313 73.2401683 79.68772095 74.08409637 79.50421143 74.95359802 C79 77 79 77 78 79 C71.07 79 64.14 79 57 79 C58.12487919 68.87608725 58.12487919 68.87608725 59.03149414 64.97094727 C59.23162613 64.09716934 59.43175812 63.22339142 59.63795471 62.32313538 C59.95831947 60.95855446 59.95831947 60.95855446 60.28515625 59.56640625 C60.50570175 58.60725815 60.72624725 57.64811005 60.95347595 56.65989685 C61.65171783 53.62630716 62.35668716 50.59433629 63.0625 47.5625 C63.77085631 44.50544649 64.47775679 41.44807085 65.18223572 38.39012146 C65.61933093 36.49425144 66.0588417 34.59893639 66.50099182 32.70423889 C66.69797165 31.85252609 66.89495148 31.00081329 67.09790039 30.12329102 C67.27253311 29.37322281 67.44716583 28.6231546 67.62709045 27.85035706 C68.0658539 25.98782985 68.0658539 25.98782985 68 24 C64.95551624 30.06340894 61.91429901 36.12844832 58.87524414 42.19458008 C57.84310102 44.25386765 56.8102372 46.31279417 55.77661133 48.37133789 C54.28272442 51.346849 52.79151798 54.32369089 51.30078125 57.30078125 C50.84536453 58.2064534 50.38994781 59.11212555 49.92073059 60.04524231 C46.79374608 66.29867465 43.86327944 72.6213625 41 79 C34.07 79 27.14 79 20 79 C19.24108604 74.44651627 18.74657108 70.19445115 18.46484375 65.609375 C18.42177597 64.91087433 18.37870819 64.21237366 18.33433533 63.4927063 C18.1978217 61.24536692 18.0670845 58.99774888 17.9375 56.75 C17.89264465 55.98898987 17.84778931 55.22797974 17.80157471 54.44390869 C17.14941966 43.28772535 16.71339876 32.17744855 17 21 C16.34 21 15.68 21 15 21 C14.95432388 21.58872894 14.90864777 22.17745789 14.86158752 22.7840271 C14.27621033 29.47007422 13.1179051 35.91818106 11.71484375 42.4765625 C11.49429825 43.52782318 11.27375275 44.57908386 11.04652405 45.66220093 C10.34843077 48.9841919 9.64309217 52.30459462 8.9375 55.625 C8.45980465 57.8918256 7.98258646 60.15875182 7.50585938 62.42578125 C6.34275127 67.95169897 5.17314756 73.47620532 4 79 C-2.6 79 -9.2 79 -16 79 C-15.33845182 73.70761456 -14.61035048 68.75459049 -13.50952148 63.57421875 C-13.3630719 62.88054703 -13.21662231 62.18687531 -13.06573486 61.47218323 C-12.58732152 59.20994491 -12.10425431 56.94872871 -11.62109375 54.6875 C-11.28592965 53.10715775 -10.95105979 51.52675307 -10.61647034 49.94628906 C-9.73987856 45.80949307 -8.85932032 41.67355136 -7.97790527 37.53778076 C-6.91858524 32.56314017 -5.86424432 27.58744216 -4.80905914 22.61192322 C-3.20983178 15.07380299 -1.60432491 7.53704508 0 0 Z M69 20 C70 22 70 22 70 22 Z " fill="#003477" transform="translate(712,121)"/>
<path d="M0 0 C0.99 0.33 1.98 0.66 3 1 C0.82096268 10.11210261 -1.73213647 19.09249798 -4.4140625 28.06640625 C-4.83357705 29.47690092 -5.25287426 30.88746025 -5.67196655 32.29808044 C-6.76410618 35.97177722 -7.85942789 39.64451771 -8.9553833 43.31707764 C-9.85232794 46.32479767 -10.74692897 49.33321239 -11.64142799 52.3416605 C-12.7106767 55.93764613 -13.78097883 59.53331786 -14.8515625 63.12890625 C-15.05473713 63.81139498 -15.25791176 64.49388371 -15.46724319 65.19705391 C-16.0409084 67.12315624 -16.61540526 69.0490108 -17.18994141 70.97485352 C-17.51620514 72.06895035 -17.84246887 73.16304718 -18.17861938 74.29029846 C-18.75814151 76.20211859 -19.36826413 78.10479239 -20 80 C8.71 80 37.42 80 67 80 C66 84 66 84 63.48510742 85.62475586 C61.81218628 86.41184937 61.81218628 86.41184937 60.10546875 87.21484375 C59.49545517 87.50653442 58.88544159 87.7982251 58.25694275 88.09875488 C56.24003325 89.05885141 54.21411317 89.99808189 52.1875 90.9375 C50.76945474 91.60761148 49.35198066 92.27893286 47.93505859 92.95141602 C43.63255728 94.98750902 39.31776998 96.99653221 35 99 C33.77325605 99.5702723 32.5465298 100.14058268 31.31982422 100.7109375 C26.79888161 102.81042664 22.27646344 104.90661914 17.74975586 106.99365234 C8.1969851 111.40887245 -1.28392329 115.96487501 -10.75 120.5625 C-11.4583197 120.90642792 -12.1666394 121.25035583 -12.89642334 121.60470581 C-17.26806376 123.72877572 -21.63787648 125.85643762 -26 128 C-27.01429077 128.26129196 -27.01429077 128.26129196 -28.04907227 128.52786255 C-30.63644654 129.34846192 -32.03857221 130.09503418 -34 132 C-36.3008576 137.27391711 -37.46916257 142.75956255 -38.71875 148.359375 C-39.10798509 149.99102953 -39.50015927 151.6219855 -39.8951416 153.2522583 C-40.92401292 157.53321311 -41.91280348 161.82246074 -42.89343262 166.11468506 C-43.9022315 170.49754974 -44.94879781 174.87136032 -45.9921875 179.24609375 C-48.0317857 187.82233492 -50.02911407 196.40770932 -52 205 C-53.32 205 -54.64 205 -56 205 C-54.48743768 196.88327902 -52.97131288 188.76722548 -51.45323181 180.65153503 C-51.19365935 179.26373926 -50.93414761 177.87593213 -50.67469788 176.4881134 C-47.16212501 157.69985311 -43.61065844 138.91938934 -40.00794792 120.14819145 C-39.42024531 117.08608033 -38.83295151 114.02389105 -38.2457428 110.96168518 C-36.50298501 101.87541816 -34.75828067 92.78954284 -33.00545216 83.70521259 C-32.27304515 79.90557063 -31.54359797 76.10536453 -30.81485939 72.30501747 C-30.47222221 70.52189937 -30.12825807 68.7390357 -29.78290367 66.95644188 C-29.30861141 64.50772661 -28.83883438 62.05818599 -28.37011719 59.60839844 C-28.22998231 58.89097756 -28.08984743 58.17355669 -27.94546604 57.43439579 C-27.33014007 54.19439974 -27 51.31771256 -27 48 C-27.4125 48.42410156 -27.825 48.84820312 -28.25 49.28515625 C-31.90958035 53.00191754 -35.67405892 56.50709958 -39.625 59.91015625 C-43.23392715 63.08577471 -46.74389476 66.36748129 -50.25634766 69.64916992 C-50.78276855 70.13877197 -51.30918945 70.62837402 -51.8515625 71.1328125 C-52.31385254 71.56480957 -52.77614258 71.99680664 -53.25244141 72.44189453 C-55.77792024 74.69358578 -58.4007137 76.83392808 -61 79 C-53.41 79.33 -45.82 79.66 -38 80 C-38.33 82.97 -38.66 85.94 -39 89 C-48.53367353 89.1223254 -57.98395808 88.80774689 -67.49682426 88.23461723 C-81.88616601 87.373388 -96.27829469 86.70798456 -110.68359375 86.18359375 C-111.53808735 86.15226978 -112.39258095 86.12094582 -113.27296829 86.08867264 C-120.22288246 85.83456927 -127.1730554 85.58790492 -134.12329102 85.34277344 C-139.39868771 85.15654374 -144.67395502 84.96723481 -149.94908333 84.77354622 C-152.37411531 84.68574719 -154.79927458 84.60247508 -157.22447205 84.51939392 C-158.70100762 84.46555947 -160.17753502 84.41150002 -161.65405273 84.35717773 C-162.932556 84.31213608 -164.21105927 84.26709442 -165.52830505 84.22068787 C-168.75060289 84.01585362 -171.82922532 83.59609475 -175 83 C-174.67 82.01 -174.34 81.02 -174 80 C-172.75020859 80.00523682 -171.50041718 80.01047363 -170.2127533 80.01586914 C-158.42709525 80.06004009 -146.6420763 80.06219331 -134.85639095 80.02334595 C-128.79731416 80.00472104 -122.73897858 80.00083319 -116.67993164 80.03076172 C-110.83102853 80.05910779 -104.98336294 80.04856337 -99.13452339 80.01119995 C-96.90465107 80.00376083 -94.67468663 80.01026948 -92.44489861 80.03103638 C-89.31726583 80.0577683 -86.19363503 80.03463791 -83.06616211 80 C-82.14690445 80.01941147 -81.22764679 80.03882294 -80.28053284 80.05882263 C-76.37110787 79.9705249 -73.95312905 79.80077418 -70.89548206 77.23188305 C-69.12913931 75.22513352 -67.55064967 73.17547501 -66 71 C-64.75644043 69.64279042 -63.50502212 68.29263067 -62.23828125 66.95703125 C-61.60067871 66.28269043 -60.96307617 65.60834961 -60.30615234 64.91357422 C-59.64824707 64.22021973 -58.9903418 63.52686523 -58.3125 62.8125 C-53.47257543 57.69148278 -48.64528055 52.56100543 -43.875 47.375 C-39.60310658 42.73132187 -35.30893203 38.10933688 -31 33.5 C-25.14887019 27.23916307 -19.3266039 20.95249558 -13.52050781 14.64990234 C-10.76565109 11.66060855 -8.00758844 8.67427359 -5.25 5.6875 C-4.23436208 4.58725151 -3.21873582 3.48699225 -2.203125 2.38671875 C-1.47609375 1.59910156 -0.7490625 0.81148437 0 0 Z M-23 90 C-27.28025643 103.41578971 -27.28025643 103.41578971 -30 117 C-21.10014832 111.99897429 -12.28681831 106.84980691 -3.49380493 101.66381836 C-2.24437701 100.92750935 -0.99418831 100.19248983 0.25674438 99.45874023 C2.03531708 98.4149338 3.81097045 97.36632922 5.5859375 96.31640625 C6.6279834 95.70224854 7.6700293 95.08809082 8.74365234 94.45532227 C9.48824707 93.97506592 10.2328418 93.49480957 11 93 C11 92.67 11 92.34 11 92 C-0.22 91.34 -11.44 90.68 -23 90 Z " fill="#023476" transform="translate(1312,20)"/>
<path d="M0 0 C10.23 0 20.46 0 31 0 C35.29 17.16 39.58 34.32 44 52 C45.22112102 48.33663694 46.27537232 45.1260413 47.03735352 41.41918945 C47.30256554 40.14305534 47.30256554 40.14305534 47.57313538 38.84114075 C47.75653976 37.94094711 47.93994415 37.04075348 48.12890625 36.11328125 C48.4207505 34.70504341 48.4207505 34.70504341 48.7184906 33.26835632 C49.33657213 30.28376359 49.94985471 27.29821296 50.5625 24.3125 C51.17934744 21.31621223 51.79724127 18.32014991 52.41722107 15.32450867 C52.80205708 13.46408596 53.18498642 11.6032676 53.56581116 9.74201965 C53.73946701 8.90072006 53.91312286 8.05942047 54.09204102 7.19262695 C54.31948753 6.08392998 54.31948753 6.08392998 54.55152893 4.95283508 C55 3 55 3 56 0 C62.6 0 69.2 0 76 0 C74.52981294 9.25395337 72.72438267 18.4114039 70.77734375 27.57421875 C70.46859726 29.03438381 70.15997011 30.4945741 69.85145569 31.95478821 C69.21026201 34.98642864 68.5671061 38.01764452 67.92260742 41.04858398 C67.09552829 44.93933756 66.27432494 48.83130601 65.45462704 52.72362041 C64.82158386 55.72576851 64.18508175 58.72717514 63.54754829 61.72837257 C63.24295611 63.16470389 62.9395497 64.60128718 62.63734245 66.03812218 C62.21746441 68.03227721 61.792341 70.02532567 61.36694336 72.01831055 C61.12648788 73.15237839 60.88603241 74.28644623 60.63829041 75.45487976 C60 78 60 78 59 79 C56.78144736 79.08783542 54.56011504 79.10694609 52.33984375 79.09765625 C51.34314415 79.09553383 51.34314415 79.09553383 50.3263092 79.09336853 C48.19666101 79.08775518 46.06711661 79.07520054 43.9375 79.0625 C42.49674631 79.05748671 41.05599097 79.05292351 39.61523438 79.04882812 C36.07678898 79.03778145 32.53840461 79.02050792 29 79 C24.5268692 60.69734256 20.09161867 42.39261277 16 24 C11.89878318 42.31261445 7.90651377 60.64492645 4 79 C-2.6 79 -9.2 79 -16 79 C-15.35167064 70.39664868 -13.68964268 62.10797324 -11.875 53.69140625 C-11.56452077 52.23323871 -11.25446973 50.77497994 -10.94482422 49.31663513 C-10.29916871 46.28110021 -9.65004068 43.24633795 -8.99804688 40.2121582 C-8.16257599 36.32390292 -7.33338294 32.43434349 -6.50643921 28.5442667 C-5.71485006 24.8220046 -4.91998178 21.10044495 -4.125 17.37890625 C-3.97415955 16.67124178 -3.82331909 15.96357731 -3.66790771 15.23446846 C-3.24136675 13.2360816 -2.81215247 11.2382659 -2.3828125 9.24047852 C-2.01760498 7.53698997 -2.01760498 7.53698997 -1.64501953 5.79908752 C-1 3 -1 3 0 0 Z " fill="#013477" transform="translate(1096,121)"/>
<path d="M0 0 C5.61929063 -0.04991171 11.23844859 -0.08595882 16.85791016 -0.10986328 C18.76450858 -0.1198421 20.67109202 -0.13342996 22.57763672 -0.15087891 C52.49949283 -0.41761805 52.49949283 -0.41761805 63 7 C69.00062988 13.0379782 71.28280242 19.44610294 71.375 27.9375 C71.17433386 41.55604227 67.2646549 56.10826087 57.85546875 66.33984375 C46.39261343 76.59608272 34.03020566 79.17476958 19.1328125 79.09765625 C18.09808807 79.0962413 17.06336365 79.09482635 15.99728394 79.09336853 C12.70649268 79.08779039 9.41577054 79.07524188 6.125 79.0625 C3.88802182 79.05748218 1.65104257 79.05291976 -0.5859375 79.04882812 C-6.05731508 79.03782812 -11.5286526 79.02111177 -17 79 C-13.76588112 62.64622831 -10.42845311 46.3165909 -6.97802734 30.00708008 C-6.23365452 26.4851632 -5.49375486 22.96232286 -4.75390625 19.43945312 C-4.27891406 17.19004751 -3.80366411 14.9406963 -3.328125 12.69140625 C-3.10835999 11.64271866 -2.88859497 10.59403107 -2.66217041 9.51356506 C-2.45815613 8.55332932 -2.25414185 7.59309357 -2.04394531 6.60375977 C-1.86583313 5.7598317 -1.68772095 4.91590363 -1.50421143 4.04640198 C-1 2 -1 2 0 0 Z M20 16 C18.25379695 20.87121733 17.1068382 25.7399621 16.0546875 30.79296875 C15.87994904 31.62081375 15.70521057 32.44865875 15.525177 33.30158997 C15.15878466 35.04176371 14.79413966 36.78230617 14.43115234 38.52319336 C13.87440421 41.19035418 13.31063767 43.85596403 12.74609375 46.52148438 C12.39020619 48.21605793 12.03472327 49.91071653 11.6796875 51.60546875 C11.51097137 52.40236618 11.34225525 53.19926361 11.16842651 54.02030945 C10.53654653 57.06724771 10 59.87906416 10 63 C21.85899481 63.56129934 21.85899481 63.56129934 33 60 C33.90105469 59.55914062 33.90105469 59.55914062 34.8203125 59.109375 C41.36438246 55.31324784 44.36929654 47.9909409 46.64453125 41.02734375 C47.74798067 34.73404431 48.02400004 28.1997038 45.3125 22.375 C40.84783641 17.78966982 36.8651117 16.08102691 30.546875 15.90234375 C29.29390625 15.91394531 28.0409375 15.92554688 26.75 15.9375 C24.85507812 15.95103516 24.85507812 15.95103516 22.921875 15.96484375 C21.95765625 15.97644531 20.9934375 15.98804688 20 16 Z " fill="#013377" transform="translate(588,121)"/>
<path d="M0 0 C6.03158978 4.82527182 8.98769877 9.69532867 10.375 17.3515625 C11.92167069 33.23071496 8.1864025 47.44684419 -1.25 60.3671875 C-9.67955999 70.36330289 -20.29370854 75.70478803 -33.14453125 77.484375 C-45.05450914 78.17250706 -56.72273611 77.61218969 -66.14453125 69.484375 C-72.14620109 62.62913434 -74.68403718 54.93337389 -74.39453125 45.83203125 C-72.72192565 30.12521926 -67.54155017 16.08978784 -55.83203125 5.234375 C-41.21181095 -6.46828471 -16.16128507 -10.96773837 0 0 Z M-42.39453125 19.046875 C-45.65987535 23.78918673 -47.48527393 29.00457135 -49.14453125 34.484375 C-49.33917969 35.12117188 -49.53382812 35.75796875 -49.734375 36.4140625 C-50.94420451 42.52082098 -50.85859688 49.18349685 -49.01953125 55.109375 C-46.20916422 58.66917323 -43.5390648 60.12519497 -39.03515625 60.80078125 C-33.29350183 61.10766278 -28.77285453 59.93849364 -24.14453125 56.484375 C-16.28742519 48.77243487 -13.0607751 37.3111645 -12.89453125 26.546875 C-12.94716197 21.78671918 -13.22052725 18.41665624 -16.14453125 14.484375 C-19.88787599 11.08133433 -23.72798881 10.96407253 -28.5859375 11.14453125 C-34.53416086 11.93460061 -38.60453336 14.43255257 -42.39453125 19.046875 Z " fill="#013477" transform="translate(163.14453125,124.515625)"/>
<path d="M0 0 C6.52869305 -0.05097336 13.05733421 -0.0858478 19.58618164 -0.10986328 C21.80430011 -0.11988174 24.0224055 -0.13350026 26.24047852 -0.15087891 C29.44029989 -0.17531051 32.63994567 -0.18652496 35.83984375 -0.1953125 C36.82145981 -0.20563507 37.80307587 -0.21595764 38.81443787 -0.22659302 C53.24318896 -0.22891105 53.24318896 -0.22891105 58.9375 4.375 C63.24261667 9.8542394 63.65006485 14.15884136 63 21 C61.71986594 27.01340286 58.7034056 32.03024528 54 36 C51.08819043 37.61291412 48.131813 38.8795069 45 40 C45.94875 40.433125 46.8975 40.86625 47.875 41.3125 C51 43 51 43 53 46 C53.17320787 48.973891 53.23390052 51.84141702 53.1875 54.8125 C53.18105469 55.65530518 53.17460938 56.49811035 53.16796875 57.36645508 C53.0801746 64.61153034 52.62111503 71.77953779 52 79 C44.08 79 36.16 79 28 79 C28 71.21828346 28.26688479 63.88356054 28.9765625 56.1875 C29.29911089 52.8411297 29.29911089 52.8411297 27 50 C23.65386488 49.41312216 23.65386488 49.41312216 19.875 49.3125 C18.59367188 49.24675781 17.31234375 49.18101562 15.9921875 49.11328125 C15.00476563 49.07589844 14.01734375 49.03851563 13 49 C12.85377197 49.73114014 12.70754395 50.46228027 12.55688477 51.21557617 C10.70458984 60.47705078 8.85229492 69.73852539 7 79 C-0.59 79 -8.18 79 -16 79 C-15.36507513 73.28567618 -14.70814748 68.10243077 -13.50952148 62.55249023 C-13.3630719 61.86842606 -13.21662231 61.18436188 -13.06573486 60.47956848 C-12.58839871 58.25497978 -12.10481817 56.03180123 -11.62109375 53.80859375 C-11.2858296 52.25212348 -10.95096155 50.69556784 -10.61647034 49.13893127 C-9.74088904 45.06932195 -8.8599788 41.00088459 -7.97790527 36.93267822 C-7.07641256 32.77027436 -6.18003144 28.60677023 -5.28320312 24.44335938 C-3.52710022 16.29449533 -1.76535887 8.14686383 0 0 Z M20 16 C19.3304744 18.62430124 18.66426282 21.24936657 18 23.875 C17.80921875 24.62136719 17.6184375 25.36773437 17.421875 26.13671875 C16.37830457 30.0194975 16.37830457 30.0194975 16 34 C18.22889496 34.05428973 20.45817471 34.09292338 22.6875 34.125 C23.92886719 34.14820313 25.17023437 34.17140625 26.44921875 34.1953125 C31.15919102 33.93623812 33.86691949 33.10160605 37.25 29.8125 C39.38644734 26.37892392 40 24.04275612 40 20 C38.58674193 17.63080129 38.58674193 17.63080129 36 16 C33.10550051 15.7093876 30.62050065 15.61813955 27.75 15.75 C27.00492188 15.76804688 26.25984375 15.78609375 25.4921875 15.8046875 C23.66090299 15.85164351 21.83028351 15.92338348 20 16 Z " fill="#013477" transform="translate(910,121)"/>
<path d="M0 0 C7.59 0 15.18 0 23 0 C22.40280162 4.77758702 21.83682551 9.17227461 20.80859375 13.8125 C20.50779907 15.18341797 20.50779907 15.18341797 20.20092773 16.58203125 C19.82303101 18.27392578 19.82303101 18.27392578 19.4375 20 C18.633125 23.63 17.82875 27.26 17 31 C25.25 31 33.5 31 42 31 C42.33 28.03 42.66 25.06 43 22 C43.35857402 20.09519975 43.75061963 18.19606467 44.19140625 16.30859375 C44.39193604 15.43775146 44.59246582 14.56690918 44.79907227 13.66967773 C45.05100342 12.60305908 45.30293457 11.53644043 45.5625 10.4375 C46.366875 6.993125 47.17125 3.54875 48 0 C55.59 0 63.18 0 71 0 C69.51595321 9.3373931 67.69235553 18.57947636 65.7421875 27.828125 C65.43094814 29.31308578 65.11992713 30.79809234 64.80911255 32.28314209 C63.99917534 36.15009491 63.18631744 40.01642784 62.37280273 43.88262939 C61.53970289 47.84455236 60.70943164 51.80706796 59.87890625 55.76953125 C58.25533683 63.51359668 56.6284127 71.25695156 55 79 C47.08 79 39.16 79 31 79 C31.83358231 74.90601469 32.66885062 70.81245162 33.50854492 66.71972656 C33.79373925 65.32703031 34.07792462 63.93412705 34.36108398 62.54101562 C34.76802377 60.53981259 35.17857404 58.53937956 35.58984375 56.5390625 C35.83597412 55.33459473 36.08210449 54.13012695 36.33569336 52.88916016 C37 50 37 50 38 48 C29.75 48 21.5 48 13 48 C12.65066406 49.81886719 12.30132812 51.63773438 11.94140625 53.51171875 C11.48178068 55.90364773 11.02214472 58.29557471 10.5625 60.6875 C10.33240234 61.88568359 10.10230469 63.08386719 9.86523438 64.31835938 C9.53168945 66.05375977 9.53168945 66.05375977 9.19140625 67.82421875 C8.98717041 68.88729248 8.78293457 69.95036621 8.57250977 71.0456543 C8.05831861 73.69905609 7.53005564 76.34972178 7 79 C-0.59 79 -8.18 79 -16 79 C-15.38221213 73.43990916 -14.76975944 68.38185445 -13.6171875 62.9831543 C-13.48209778 62.34452957 -13.34700806 61.70590485 -13.20782471 61.04792786 C-12.76770864 58.97244795 -12.32145543 56.89834334 -11.875 54.82421875 C-11.56458017 53.36700501 -11.25452792 51.90971291 -10.94482422 50.4523468 C-10.13370941 46.6407488 -9.31725708 42.83031315 -8.49975586 39.02008057 C-7.83270874 35.90667807 -7.16947738 32.79246859 -6.50643921 29.67821026 C-5.71386181 25.9557826 -4.91970567 22.23369257 -4.125 18.51171875 C-3.97415955 17.80520361 -3.82331909 17.09868847 -3.66790771 16.37076378 C-3.24037788 14.37028688 -2.81179741 12.37003836 -2.3828125 10.36987305 C-2.13934082 9.23341843 -1.89586914 8.09696381 -1.64501953 6.92607117 C-1.13420091 4.60878995 -0.57551654 2.30206616 0 0 Z " fill="#013477" transform="translate(359,121)"/>
<path d="M0 0 C7.59 0 15.18 0 23 0 C21.875 11.25 21.875 11.25 21.02734375 15.5703125 C20.85009766 16.48554688 20.67285156 17.40078125 20.49023438 18.34375 C20.30783203 19.2615625 20.12542969 20.179375 19.9375 21.125 C19.75123047 22.08148438 19.56496094 23.03796875 19.37304688 24.0234375 C18.91940944 26.34978331 18.46167962 28.67523936 18 31 C19.67644759 29.22272565 21.35189739 27.4445657 23.0246582 25.66381836 C24.48151653 24.12210407 25.94773553 22.58918801 27.42260742 21.06469727 C30.90009761 17.44427076 34.17630537 13.9069796 37.0078125 9.75390625 C40.69754353 4.58441921 43.67048043 0.61309155 50.1953125 -0.58837891 C58.15968654 -1.19366273 66.06098011 -0.77624456 74 0 C72.67005617 2.95265112 71.22220684 5.02350216 68.92724609 7.29980469 C67.99650772 8.23031647 67.99650772 8.23031647 67.04696655 9.17962646 C66.04531967 10.16578949 66.04531967 10.16578949 65.0234375 11.171875 C64.33819 11.8542926 63.6529425 12.53671021 62.94692993 13.23980713 C60.76094155 15.41461598 58.56809571 17.58236072 56.375 19.75 C54.89016745 21.2247999 53.40578694 22.70005506 51.921875 24.17578125 C48.2864709 27.78915448 44.64490176 31.39620853 41 35 C44.86894233 44.50696333 49.05594951 53.84967193 53.3125 63.1875 C54.58154829 65.97169781 55.84817693 68.75697702 57.11328125 71.54296875 C57.40382889 72.17824997 57.69437653 72.81353119 57.99372864 73.46806335 C60 77.88718399 60 77.88718399 60 79 C50.76 79 41.52 79 32 79 C26.375 67.75 26.375 67.75 24.10546875 62.1171875 C23.62529297 60.93125 23.14511719 59.7453125 22.65039062 58.5234375 C22.16763672 57.31945312 21.68488281 56.11546875 21.1875 54.875 C20.68071481 53.6196397 20.17355557 52.36443034 19.66601562 51.109375 C18.44034179 48.07437311 17.21842766 45.03791647 16 42 C12.8917144 54.30888925 9.92586683 66.64634004 7 79 C-0.59 79 -8.18 79 -16 79 C-14.60625196 69.34246265 -12.79237289 59.82780238 -10.7421875 50.29296875 C-10.43084245 48.83188071 -10.1198236 47.37072312 -9.80911255 45.90950012 C-9.00024168 42.10972701 -8.18701747 38.31089915 -7.37280273 34.51226807 C-6.53881086 30.61747692 -5.70905041 26.72178459 -4.87890625 22.82617188 C-3.25668411 15.21657149 -1.62945864 7.60805476 0 0 Z " fill="#013478" transform="translate(276,121)"/>
<path d="M0 0 C1.12591553 0.00523682 2.25183105 0.01047363 3.41186523 0.01586914 C4.62680664 0.0190918 5.84174805 0.02231445 7.09350586 0.02563477 C8.37290039 0.03401367 9.65229492 0.04239258 10.97045898 0.05102539 C12.2537207 0.05553711 13.53698242 0.06004883 14.85913086 0.06469727 C18.04211921 0.07652994 21.22501661 0.09301471 24.40795898 0.11352539 C25.82770668 4.85624063 26.93935872 9.53219325 27.82836914 14.40991211 C27.95545761 15.10183151 28.08254608 15.79375092 28.21348572 16.50663757 C28.62800973 18.76823252 29.03759036 21.0306909 29.44702148 23.29321289 C29.73534749 24.87270105 30.02395662 26.45213756 30.31283569 28.03152466 C30.91500675 31.32768473 31.51493669 34.62424147 32.11303711 37.92114258 C32.88120582 42.15542591 33.65319486 46.38900081 34.42661476 50.6223278 C35.16382944 54.65822928 35.89928884 58.69444994 36.63452148 62.73071289 C36.77543842 63.50361538 36.91635536 64.27651787 37.06154251 65.07284164 C37.45744211 67.24622191 37.85210552 69.41982263 38.24633789 71.59350586 C38.47124908 72.83147919 38.69616028 74.06945251 38.92788696 75.34494019 C39.40795898 78.11352539 39.40795898 78.11352539 39.40795898 79.11352539 C30.82795898 79.11352539 22.24795898 79.11352539 13.40795898 79.11352539 C12.74795898 73.83352539 12.08795898 68.55352539 11.40795898 63.11352539 C1.50795898 63.44352539 -8.39204102 63.77352539 -18.59204102 64.11352539 C-21.23204102 69.06352539 -23.87204102 74.01352539 -26.59204102 79.11352539 C-34.18204102 79.11352539 -41.77204102 79.11352539 -49.59204102 79.11352539 C-47.86799468 74.80340956 -45.89308855 71.00923237 -43.52954102 67.05102539 C-43.10036377 66.3269751 -42.67118652 65.6029248 -42.22900391 64.85693359 C-36.23642962 54.78334298 -30.12768085 44.77893932 -24.03147888 34.76785278 C-21.26485987 30.22315408 -18.50699655 25.67320907 -15.75219727 21.12133789 C-14.57862508 19.18343157 -13.40494335 17.24559163 -12.23123169 15.30776978 C-11.47415751 14.05721522 -10.71754234 12.80638267 -9.96139526 11.55526733 C-8.91249185 9.81999518 -7.86168986 8.08587107 -6.81079102 6.35180664 C-6.21202148 5.36220947 -5.61325195 4.3726123 -4.99633789 3.35302734 C-2.97551495 0.13032066 -2.97551495 0.13032066 0 0 Z M5.40795898 19.11352539 C3.42938996 22.75974001 1.45397172 26.40764165 -0.51855469 30.05712891 C-1.18989267 31.29815578 -1.86208668 32.53871999 -2.53515625 33.77880859 C-3.5029941 35.56234447 -4.4677316 37.34752679 -5.43188477 39.13305664 C-6.01317139 40.206604 -6.59445801 41.28015137 -7.19335938 42.38623047 C-8.67100878 45.09787076 -8.67100878 45.09787076 -9.59204102 48.11352539 C-3.32204102 48.11352539 2.94795898 48.11352539 9.40795898 48.11352539 C8.79158857 36.63818385 8.79158857 36.63818385 7.97045898 25.17602539 C7.90987305 24.42450195 7.84928711 23.67297852 7.78686523 22.89868164 C7.52515157 20.86746334 7.52515157 20.86746334 5.40795898 19.11352539 Z " fill="#013477" transform="translate(847.592041015625,120.886474609375)"/>
<path d="M0 0 C19.8 0 39.6 0 60 0 C58 13 58 13 57 16 C44.79 16.33 32.58 16.66 20 17 C19.01 21.62 18.02 26.24 17 31 C28.22 31.33 39.44 31.66 51 32 C50 40 50 40 48 47 C36.45 47 24.9 47 13 47 C12.34 50.96 11.68 54.92 11 59 C10.67 60.32 10.34 61.64 10 63 C22.21 63 34.42 63 47 63 C46 73 46 73 44 79 C24.2 79 4.4 79 -16 79 C-13.75 64.375 -13.75 64.375 -12.48779297 58.46557617 C-12.35095093 57.81994217 -12.21410889 57.17430817 -12.07312012 56.5091095 C-11.63292003 54.43631124 -11.18764027 52.36464385 -10.7421875 50.29296875 C-10.43084245 48.83188071 -10.1198236 47.37072312 -9.80911255 45.90950012 C-9.00024168 42.10972701 -8.18701747 38.31089915 -7.37280273 34.51226807 C-6.39154042 29.9297153 -5.41583103 25.34597725 -4.43916321 20.76244354 C-2.96363509 13.84072455 -1.48117387 6.92052387 0 0 Z " fill="#013477" transform="translate(515,121)"/>
<path d="M0 0 C1.04590805 0.00222061 2.0918161 0.00444122 3.16941833 0.00672913 C4.35056717 0.00680466 5.531716 0.00688019 6.74865723 0.00695801 C8.03404892 0.01211929 9.31944061 0.01728058 10.64378357 0.02259827 C12.60601112 0.02472069 12.60601112 0.02472069 14.60787964 0.02688599 C18.09150591 0.03071042 21.57509071 0.04054005 25.05870056 0.05158997 C28.6111444 0.06180569 32.16359491 0.06638395 35.71604919 0.07142639 C42.69067564 0.0821624 49.66527449 0.09923792 56.63987732 0.12025452 C56.03611354 5.75538311 55.04657466 10.49346514 53.63987732 16.12025452 C41.42987732 16.12025452 29.21987732 16.12025452 16.63987732 16.12025452 C15.64987732 21.40025452 14.65987732 26.68025452 13.63987732 32.12025452 C24.85987732 32.12025452 36.07987732 32.12025452 47.63987732 32.12025452 C46.63987732 41.12025452 46.63987732 41.12025452 44.63987732 47.12025452 C33.08987732 47.12025452 21.53987732 47.12025452 9.63987732 47.12025452 C8.97987732 51.41025452 8.31987732 55.70025452 7.63987732 60.12025452 C7.30987732 61.11025452 6.97987732 62.10025452 6.63987732 63.12025452 C19.17987732 63.12025452 31.71987732 63.12025452 44.63987732 63.12025452 C41.63987732 78.12025452 41.63987732 78.12025452 40.63987732 79.12025452 C38.76806792 79.21411832 36.89269672 79.23769255 35.01853943 79.23377991 C33.81736984 79.23370438 32.61620026 79.23362885 31.37863159 79.23355103 C30.07136612 79.22838974 28.76410065 79.22322845 27.41722107 79.21791077 C26.073436 79.2160465 24.72965025 79.21462264 23.38586426 79.21362305 C19.84305455 79.20979853 16.30028562 79.19996883 12.75749207 79.18891907 C9.14472505 79.17870351 5.53195148 79.17412512 1.91917419 79.16908264 C-5.17394148 79.1583465 -12.26702942 79.14127088 -19.36012268 79.12025452 C-17.91563301 69.86408545 -16.08409019 60.7068969 -14.13746643 51.54603577 C-13.82871994 50.08587071 -13.52009279 48.62568042 -13.21157837 47.16546631 C-12.57038469 44.13382587 -11.92722878 41.10261 -11.2827301 38.07167053 C-10.45565098 34.18091695 -9.63444762 30.28894851 -8.81474972 26.3966341 C-8.18170654 23.39448601 -7.54520443 20.39307938 -6.90767097 17.39188194 C-6.60307879 15.95555063 -6.29967238 14.51896734 -5.99746513 13.08213234 C-5.57758709 11.08797731 -5.15246368 9.09492884 -4.72706604 7.10194397 C-4.48661057 5.96787613 -4.24615509 4.83380829 -3.99841309 3.66537476 C-3.11903043 0.15892288 -3.11903043 0.15892288 0 0 Z " fill="#013376" transform="translate(446.36012268066406,120.87974548339844)"/>
<path d="M0 0 C1.40088867 -0.02416992 1.40088867 -0.02416992 2.83007812 -0.04882812 C11.67269833 -0.05496457 20.17813269 1.27480835 26.78125 7.58203125 C31.10434621 12.90184131 31.64511025 18.67715139 31.1875 25.3125 C30.8575 25.9725 30.5275 26.6325 30.1875 27.3125 C22.5975 27.3125 15.0075 27.3125 7.1875 27.3125 C6.5275 24.3425 5.8675 21.3725 5.1875 18.3125 C-0.22721832 16.95882042 -4.67384512 16.58535734 -9.9375 18.375 C-18.55209119 24.18048536 -22.03040972 32.97118468 -24.43359375 42.87109375 C-25.32554085 48.61817561 -25.44492018 54.22923352 -23.75 59.8125 C-21.24308644 63.04722718 -18.80528778 64.63679745 -14.8125 65.3125 C-9.93968152 65.11224719 -6.67601491 64.01066099 -2.875 60.9375 C-0.60082837 58.22406365 -0.60082837 58.22406365 1.1875 54.3125 C9.1075 54.3125 17.0275 54.3125 25.1875 54.3125 C21.7707093 65.70180234 18.98351677 71.45542917 8.8359375 77.0625 C2.20478558 80.19224722 -4.53263142 81.73473265 -11.8125 82.3125 C-12.47378906 82.36535156 -13.13507813 82.41820312 -13.81640625 82.47265625 C-23.00162435 82.86171705 -33.57984394 81.22886588 -41.1953125 75.8359375 C-45.65790259 71.63204829 -48.44170141 66.45214666 -48.98950195 60.33642578 C-49.48797936 43.42791343 -47.06482514 28.8477267 -36.4375 15 C-26.08454771 4.40054885 -14.64036298 -0.04989899 0 0 Z " fill="#013478" transform="translate(228.8125,119.6875)"/>
<path d="M0 0 C23.43 0 46.86 0 71 0 C69 13 69 13 68 17 C59.75 17 51.5 17 43 17 C42.67 19.97 42.34 22.94 42 26 C41.66345736 27.93239365 41.29776662 29.86012298 40.89257812 31.77929688 C40.67565308 32.81646851 40.45872803 33.85364014 40.23522949 34.92224121 C40.00291626 36.01008911 39.77060303 37.09793701 39.53125 38.21875 C39.17069519 39.9273822 39.17069519 39.9273822 38.80285645 41.67053223 C38.2972736 44.06107497 37.78954806 46.45116545 37.27978516 48.84082031 C36.49680202 52.51500666 35.72256793 56.19096271 34.94921875 59.8671875 C34.45624744 62.19281825 33.96277583 64.51834303 33.46875 66.84375 C33.23643677 67.94779175 33.00412354 69.0518335 32.76477051 70.18933105 C32.54784546 71.2012854 32.33092041 72.21323975 32.10742188 73.25585938 C31.91724487 74.15026733 31.72706787 75.04467529 31.53112793 75.96618652 C31 78 31 78 30 79 C28.29227642 79.08713831 26.58101351 79.10700007 24.87109375 79.09765625 C23.31938477 79.09282227 23.31938477 79.09282227 21.73632812 79.08789062 C20.64771484 79.07951172 19.55910156 79.07113281 18.4375 79.0625 C16.7987793 79.05573242 16.7987793 79.05573242 15.12695312 79.04882812 C12.41791505 79.03699826 9.70898401 79.02051543 7 79 C8.20642202 73.06288985 9.41502934 67.12622983 10.62548828 61.18994141 C11.03523925 59.17899002 11.44443765 57.16792594 11.85302734 55.15673828 C14.44362496 42.40743355 17.13883111 29.69151523 20 17 C12.41 17 4.82 17 -3 17 C-2 8 -2 8 0 0 Z " fill="#013477" transform="translate(982,121)"/>
<path d="M0 0 C0.9583374 0.00523682 1.9166748 0.01047363 2.90405273 0.01586914 C4.45576172 0.02070312 4.45576172 0.02070312 6.03881836 0.02563477 C7.12743164 0.03401367 8.21604492 0.04239258 9.33764648 0.05102539 C10.97636719 0.05779297 10.97636719 0.05779297 12.64819336 0.06469727 C15.35723144 0.07652713 18.06616248 0.09300996 20.77514648 0.11352539 C16.64546588 21.15667729 12.21783968 42.1347533 7.77514648 63.11352539 C18.99514648 63.11352539 30.21514648 63.11352539 41.77514648 63.11352539 C40.77514648 72.11352539 40.77514648 72.11352539 38.77514648 79.11352539 C19.63514648 79.11352539 0.49514648 79.11352539 -19.22485352 79.11352539 C-13.44882797 49.07819253 -13.44882797 49.07819253 -11.36547852 39.23461914 C-11.13076843 38.11958511 -10.89605835 37.00455109 -10.65423584 35.85572815 C-10.17164631 33.56697783 -9.6878821 31.27847485 -9.20288086 28.99023438 C-8.45696469 25.46651838 -7.71777183 21.94142948 -6.97875977 18.41625977 C-6.50389765 16.16812872 -6.02865301 13.92007844 -5.55297852 11.67211914 C-5.22333099 10.09605141 -5.22333099 10.09605141 -4.88702393 8.48814392 C-4.5810025 7.05251854 -4.5810025 7.05251854 -4.26879883 5.58789062 C-4.09068665 4.74475815 -3.91257446 3.90162567 -3.72906494 3.03294373 C-3.01677584 0.32142095 -2.84504658 0.14517137 0 0 Z " fill="#013477" transform="translate(41.224853515625,120.886474609375)"/>
<path d="M0 0 C7.92 0 15.84 0 24 0 C20.82153016 16.74496793 17.51201899 33.44988495 13.97802734 50.12329102 C13.23211117 53.64700701 12.49291831 57.17209591 11.75390625 60.69726562 C11.27904414 62.94539667 10.80379949 65.19344695 10.328125 67.44140625 C10.10835999 68.49211807 9.88859497 69.5428299 9.66217041 70.62538147 C9.45815613 71.58246506 9.25414185 72.53954865 9.04394531 73.52563477 C8.86583313 74.36876724 8.68772095 75.21189972 8.50421143 76.08058167 C8 78 8 78 7 79 C5.29227642 79.08713831 3.58101351 79.10700007 1.87109375 79.09765625 C0.31938477 79.09282227 0.31938477 79.09282227 -1.26367188 79.08789062 C-2.35228516 79.07951172 -3.44089844 79.07113281 -4.5625 79.0625 C-6.2012207 79.05573242 -6.2012207 79.05573242 -7.87304688 79.04882812 C-10.58208759 79.03699825 -13.29100822 79.01967721 -16 79 C-14.638729 69.34138155 -12.79162119 59.82430643 -10.7421875 50.29296875 C-10.43084245 48.83188071 -10.1198236 47.37072312 -9.80911255 45.90950012 C-9.00024168 42.10972701 -8.18701747 38.31089915 -7.37280273 34.51226807 C-6.53881086 30.61747692 -5.70905041 26.72178459 -4.87890625 22.82617188 C-3.25668411 15.21657149 -1.62945864 7.60805476 0 0 Z " fill="#013477" transform="translate(1059,121)"/>
<path d="M0 0 C0.28020411 5.51068087 0.41516329 8.44032224 -3 13 C-5.46555634 14.73143648 -8.11509625 16.01551672 -10.8203125 17.33129883 C-12.01343048 17.93223862 -12.01343048 17.93223862 -13.23065186 18.5453186 C-15.8554942 19.86293889 -18.4898315 21.16020235 -21.125 22.45703125 C-22.95250975 23.36806467 -24.77948861 24.28016376 -26.60595703 25.19328308 C-30.43164618 27.10226483 -34.26180002 29.00185744 -38.09570312 30.89428711 C-43.0156005 33.3230611 -47.9265507 35.76928937 -52.83462524 38.2218523 C-56.60500124 40.10469297 -60.37855506 41.98108399 -64.15325928 43.85523033 C-65.96566182 44.75539228 -67.77739129 45.65691069 -69.58843994 46.55979347 C-72.11586349 47.81791481 -74.64710361 49.06797978 -77.1796875 50.31567383 C-77.9309491 50.69119888 -78.68221069 51.06672394 -79.45623779 51.45362854 C-84.65633861 54 -84.65633861 54 -88 54 C-88 53.01 -88 52.02 -88 51 C-85.7980957 49.36865234 -85.7980957 49.36865234 -82.67578125 47.5859375 C-81.82919197 47.09602829 -81.82919197 47.09602829 -80.96549988 46.59622192 C-79.08691855 45.51212206 -77.1997917 44.44385223 -75.3125 43.375 C-73.99020503 42.61511503 -72.66859975 41.85402876 -71.34765625 41.09179688 C-68.59852763 39.50670251 -65.8464801 37.92685962 -63.09228516 36.35058594 C-57.46225029 33.1233337 -51.86901087 29.83390879 -46.27560425 26.54373169 C-43.90350204 25.14936792 -41.52920476 23.75876557 -39.15492249 22.36811829 C-34.04779907 19.3767058 -28.94398573 16.37974639 -23.84399414 13.37619019 C-21.13353546 11.7801382 -18.42215323 10.18565897 -15.71069336 8.59130859 C-14.40960944 7.82566016 -13.10898612 7.05922845 -11.80883789 6.29199219 C-10.01431842 5.23308392 -8.21827723 4.17680382 -6.421875 3.12109375 C-5.39674805 2.5170874 -4.37162109 1.91308105 -3.31542969 1.29077148 C-1 0 -1 0 0 0 Z " fill="#023475" transform="translate(1266,146)"/>
<path d="M0 0 C0.68449219 0.06960937 1.36898438 0.13921875 2.07421875 0.2109375 C3.29109375 0.3346875 4.50796875 0.4584375 5.76171875 0.5859375 C5.76171875 3.5859375 5.76171875 3.5859375 4.51171875 5.1640625 C3.64546875 5.99164063 3.64546875 5.99164063 2.76171875 6.8359375 C2.20484375 7.37734375 1.64796875 7.91875 1.07421875 8.4765625 C-0.92874373 10.30358909 -2.95806476 12.08867196 -5.00390625 13.8671875 C-9.09014018 17.42988452 -13.04869396 21.11260674 -16.98828125 24.8359375 C-18.38384594 26.14611954 -19.77968197 27.45601262 -21.17578125 28.765625 C-23.72454743 31.15930116 -26.26535726 33.56095765 -28.80078125 35.96875 C-29.86296512 36.9664825 -30.92544546 37.9638995 -31.98828125 38.9609375 C-32.91125 39.83492187 -33.83421875 40.70890625 -34.78515625 41.609375 C-37.07957503 43.45806274 -38.36059819 44.22286534 -41.23828125 44.5859375 C-41.23828125 41.01706203 -40.74713418 40.69501907 -38.37109375 38.20703125 C-37.74114502 37.5416333 -37.11119629 36.87623535 -36.4621582 36.19067383 C-35.42321411 35.11789185 -35.42321411 35.11789185 -34.36328125 34.0234375 C-33.65453857 33.28053467 -32.9457959 32.53763184 -32.21557617 31.7722168 C-26.00441913 25.29557359 -19.66395243 18.94606189 -13.26806641 12.65209961 C-10.15197117 9.5735773 -7.15841461 6.5667984 -4.48828125 3.08984375 C-2.23828125 0.5859375 -2.23828125 0.5859375 0 0 Z " fill="#053371" transform="translate(1231.23828125,109.4140625)"/>
<path d="M0 0 C0 2.92828926 -0.13970066 5.20402714 -1 8 C-2.8125 9.375 -2.8125 9.375 -5 10 C-6.32 9.67 -7.64 9.34 -9 9 C-6.03 6.03 -3.06 3.06 0 0 Z " fill="#0B306B" transform="translate(311,134)"/>
<path d="M0 0 C0.99 0 1.98 0 3 0 C2.67 2.31 2.34 4.62 2 7 C8.6 7 15.2 7 22 7 C22 7.33 22 7.66 22 8 C15.07 8 8.14 8 1 8 C0.67 5.36 0.34 2.72 0 0 Z " fill="#093265" transform="translate(731,192)"/>
<path d="M0 0 C0.99 0 1.98 0 3 0 C2.34 2.97 1.68 5.94 1 9 C0.01 9 -0.98 9 -2 9 C-2.6875 7.3125 -2.6875 7.3125 -3 5 C-1.75 2.25 -1.75 2.25 0 0 Z " fill="#013869" transform="translate(1282,123)"/>
<path d="M0 0 C2.5654594 2.5654594 2.54046087 4.47686668 3 8 C2.34 8 1.68 8 1 8 C1 7.34 1 6.68 1 6 C-0.98 6 -2.96 6 -5 6 C-3.35 4.02 -1.7 2.04 0 0 Z " fill="#07326A" transform="translate(317,128)"/>
<path d="M0 0 C1.45606519 4.52092968 0.27032841 7.51648796 -1 12 C-2.32 11.67 -3.64 11.34 -5 11 C-4.34 9.35 -3.68 7.7 -3 6 C-2.34 6 -1.68 6 -1 6 C-0.67 4.02 -0.34 2.04 0 0 Z " fill="#04356B" transform="translate(501,125)"/>
<path d="M0 0 C0.99 0.33 1.98 0.66 3 1 C2.01 4.63 1.02 8.26 0 12 C-0.66 12 -1.32 12 -2 12 C-1.835 11.4225 -1.67 10.845 -1.5 10.25 C-0.85537969 7.73335631 -0.85537969 7.73335631 -1 4 C-1.66 3.67 -2.32 3.34 -3 3 C-2.01 2.01 -1.02 1.02 0 0 Z " fill="#0C2F77" transform="translate(1312,20)"/>
<path d="M0 0 C0.33 0.99 0.66 1.98 1 3 C-0.26418246 3.69965443 -1.53665402 4.38434763 -2.8125 5.0625 C-3.52019531 5.44535156 -4.22789063 5.82820312 -4.95703125 6.22265625 C-7 7 -7 7 -10 6 C-6.7 4.02 -3.4 2.04 0 0 Z " fill="#05336A" transform="translate(1227,168)"/>
<path d="M0 0 C0.99 0.33 1.98 0.66 3 1 C3.33 1.99 3.66 2.98 4 4 C3.01 4.66 2.02 5.32 1 6 C0.01 5.01 -0.98 4.02 -2 3 C-1.34 2.01 -0.68 1.02 0 0 Z " fill="#073367" transform="translate(1207,133)"/>
<path d="M0 0 C1.45922693 0.11409593 2.91740598 0.24165544 4.375 0.375 C5.59316406 0.47941406 5.59316406 0.47941406 6.8359375 0.5859375 C9 1 9 1 11 3 C9.35333797 2.8864371 7.70763918 2.75882619 6.0625 2.625 C5.14597656 2.55539063 4.22945312 2.48578125 3.28515625 2.4140625 C2.15400391 2.20910156 2.15400391 2.20910156 1 2 C0.67 1.34 0.34 0.68 0 0 Z " fill="#07356A" transform="translate(957,122)"/>
<path d="M0 0 C2.0625 0.4375 2.0625 0.4375 4 1 C2.71086513 1.67154933 1.41859796 2.33708859 0.125 3 C-0.59429688 3.37125 -1.31359375 3.7425 -2.0546875 4.125 C-4 5 -4 5 -6 5 C-6 4.34 -6 3.68 -6 3 C-5.195625 2.690625 -4.39125 2.38125 -3.5625 2.0625 C-1.10919595 1.23664655 -1.10919595 1.23664655 0 0 Z " fill="#033667" transform="translate(634,192)"/>
<path d="M0 0 C2 2 2 2 2 6 C0.35 6 -1.3 6 -3 6 C-2.01 4.02 -1.02 2.04 0 0 Z " fill="#043368" transform="translate(844,122)"/>
</svg>
