<?xml version="1.0" encoding="UTF-8"?>
<!DOCTYPE svg PUBLIC "-//W3C//DTD SVG 1.1//EN" "http://www.w3.org/Graphics/SVG/1.1/DTD/svg11.dtd">
<svg xmlns="http://www.w3.org/2000/svg" version="1.1" width="583px" height="133px" style="shape-rendering:geometricPrecision; text-rendering:geometricPrecision; image-rendering:optimizeQuality; fill-rule:evenodd; clip-rule:evenodd" xmlns:xlink="http://www.w3.org/1999/xlink">
<g><path style="opacity:0.763" fill="#f6a200" d="M 176.5,-0.5 C 177.167,-0.5 177.833,-0.5 178.5,-0.5C 178.833,1.5 179.167,3.5 179.5,5.5C 185.636,5.02768 186.469,6.36102 182,9.5C 183.415,15.895 181.748,16.895 177,12.5C 173.256,16.7031 172.09,16.0364 173.5,10.5C 172.5,8.83333 171.167,7.5 169.5,6.5C 171.396,5.53443 173.396,5.2011 175.5,5.5C 175.833,3.5 176.167,1.5 176.5,-0.5 Z"/></g>
<g><path style="opacity:0.947" fill="#aeb1ca" d="M 345.5,-0.5 C 345.833,-0.5 346.167,-0.5 346.5,-0.5C 354.768,23.971 363.435,48.3044 372.5,72.5C 379.96,50.285 387.127,27.9517 394,5.5C 400.744,4.52117 407.578,4.18783 414.5,4.5C 401.239,47.2831 387.572,89.9498 373.5,132.5C 372.833,132.5 372.167,132.5 371.5,132.5C 363.309,106.425 354.809,80.4252 346,54.5C 337.059,80.491 328.225,106.491 319.5,132.5C 319.167,132.5 318.833,132.5 318.5,132.5C 304.509,90.1948 290.509,47.8615 276.5,5.5C 283.5,4.16667 290.5,4.16667 297.5,5.5C 304.668,28.1724 311.834,50.839 319,73.5C 327.941,48.843 336.774,24.1763 345.5,-0.5 Z"/></g>
<g><path style="opacity:0.946" fill="#aeb1ca" d="M 456.5,2.5 C 471.422,0.930447 485.422,3.76378 498.5,11C 499.814,18.7749 499.814,26.6083 498.5,34.5C 475.063,15.3236 452.563,16.3236 431,37.5C 417,57.1667 417,76.8333 431,96.5C 443.816,110.993 459.649,115.826 478.5,111C 486.051,107.976 492.884,103.81 499,98.5C 499.832,106.521 499.665,114.521 498.5,122.5C 473.787,135.273 449.787,134.106 426.5,119C 401.478,97.2634 394.978,70.7634 407,39.5C 417.719,19.2438 434.219,6.9105 456.5,2.5 Z"/></g>
<g><path style="opacity:0.946" fill="#aeb1ca" d="M 582.5,89.5 C 582.5,90.8333 582.5,92.1667 582.5,93.5C 579.209,117.118 565.542,129.785 541.5,131.5C 517.947,129.614 504.947,116.947 502.5,93.5C 508.808,92.7138 514.975,91.3805 521,89.5C 521.7,97.7337 525.2,104.567 531.5,110C 543.17,115.306 552.67,112.806 560,102.5C 564.565,91.5834 562.065,82.7501 552.5,76C 541.071,71.4517 530.071,66.1184 519.5,60C 505.3,46.1028 503.8,30.9361 515,14.5C 530.334,1.11159 547.167,-1.05507 565.5,8C 571.782,12.1355 575.948,17.6355 578,24.5C 573,27.5 568,30.5 563,33.5C 555.647,20.5629 545.48,17.7295 532.5,25C 525.554,32.331 525.887,39.331 533.5,46C 541.05,49.6084 548.717,52.9418 556.5,56C 571.909,62.2091 580.576,73.3757 582.5,89.5 Z"/></g>
<g><path style="opacity:0.965" fill="#aeb0ca" d="M 232.5,41.5 C 225.73,39.5856 219.397,36.9189 213.5,33.5C 213.5,23.8333 213.5,14.1667 213.5,4.5C 223.506,4.33352 233.506,4.50019 243.5,5C 268.088,5.25669 281.421,17.59 283.5,42C 282.15,61.6865 271.817,73.6865 252.5,78C 245.842,78.4996 239.175,78.6663 232.5,78.5C 232.5,95.1667 232.5,111.833 232.5,128.5C 226.167,128.5 219.833,128.5 213.5,128.5C 213.333,106.831 213.5,85.1641 214,63.5C 220.031,60.0668 226.198,57.0668 232.5,54.5C 232.5,56.5 232.5,58.5 232.5,60.5C 240.005,61.0116 247.339,60.1783 254.5,58C 263.796,51.532 266.296,43.032 262,32.5C 258.763,27.791 254.263,24.9576 248.5,24C 243.192,23.1697 237.859,22.6697 232.5,22.5C 232.5,28.8333 232.5,35.1667 232.5,41.5 Z"/></g>
<g><path style="opacity:0.962" fill="#3a549b" d="M 138.5,6.5 C 148.5,9.83333 158.5,13.1667 168.5,16.5C 168.649,17.552 168.483,18.552 168,19.5C 148.393,39.0555 125.226,52.5555 98.5,60C 86.1483,61.5617 74.1483,60.2283 62.5,56C 55.5637,52.0604 48.8971,47.727 42.5,43C 74.7159,31.0994 106.716,18.9327 138.5,6.5 Z"/></g>
<g><path style="opacity:0.967" fill="#3a549b" d="M 213.5,33.5 C 219.397,36.9189 225.73,39.5856 232.5,41.5C 235.363,41.9294 238.029,42.9294 240.5,44.5C 206.99,62.0886 173.323,79.422 139.5,96.5C 125.167,89 110.833,81.5 96.5,74C 118.054,66.436 137.054,54.7693 153.5,39C 159.833,32.6667 166.167,26.3333 172.5,20C 186.297,23.8875 199.964,28.3875 213.5,33.5 Z"/></g>
<g><path style="opacity:0.751" fill="#f6a200" d="M 14.5,38.5 C 17.7636,39.9274 20.2636,42.2608 22,45.5C 22.49,44.2068 22.6567,42.8734 22.5,41.5C 23.552,41.3505 24.552,41.5172 25.5,42C 35.7051,56.4387 49.7051,64.1054 67.5,65C 49.5576,66.0187 33.7242,60.852 20,49.5C 17.6397,46.6397 15.473,43.6397 13.5,40.5C 13.8627,39.8165 14.1961,39.1499 14.5,38.5 Z"/></g>
<g><path style="opacity:0.861" fill="#f6a200" d="M -0.5,70.5 C -0.5,69.5 -0.5,68.5 -0.5,67.5C 11.3693,70.308 23.3693,72.1414 35.5,73C 21.5746,70.2062 9.57464,64.0395 -0.5,54.5C -0.5,53.1667 -0.5,51.8333 -0.5,50.5C 1.85771,46.9229 5.19105,45.7563 9.5,47C 42.6305,69.7876 77.9638,73.7876 115.5,59C 124.995,54.4224 133.995,49.089 142.5,43C 143.759,42.0181 145.092,41.6848 146.5,42C 112.971,70.0574 74.3042,81.724 30.5,77C 19.9441,75.789 9.61081,73.6224 -0.5,70.5 Z"/></g>
<g><path style="opacity:0.924" fill="#3a549b" d="M 151.5,132.5 C 143.833,132.5 136.167,132.5 128.5,132.5C 99.4201,125.015 86.7534,106.348 90.5,76.5C 106.928,84.2138 123.262,92.2138 139.5,100.5C 155.951,92.7746 172.284,84.7746 188.5,76.5C 193.231,106.357 180.898,125.024 151.5,132.5 Z M 104.5,114.5 C 106.404,114.738 107.738,115.738 108.5,117.5C 106.596,117.262 105.262,116.262 104.5,114.5 Z M 175.5,114.5 C 165.562,123.543 153.729,128.21 140,128.5C 132.639,127.895 125.473,126.395 118.5,124C 114.589,122.556 111.256,120.389 108.5,117.5C 123.308,125.456 138.975,127.623 155.5,124C 162.614,121.608 169.281,118.441 175.5,114.5 Z"/></g>
</svg>
