<?xml version="1.0" standalone="no"?>
<!DOCTYPE svg PUBLIC "-//W3C//DTD SVG 20010904//EN"
 "http://www.w3.org/TR/2001/REC-SVG-20010904/DTD/svg10.dtd">
<svg version="1.0" xmlns="http://www.w3.org/2000/svg"
 width="321.000000pt" height="157.000000pt" viewBox="0 0 321.000000 157.000000"
 preserveAspectRatio="xMidYMid meet">

 <title>Comet Robotics Logo</title>

<g transform="translate(0.000000,157.000000) scale(0.100000,-0.100000)"
fill="#000000" stroke="none">
<path d="M2380 1552 c0 -5 14 -48 30 -95 17 -48 30 -91 30 -97 0 -11 -64 -30
-102 -30 -19 0 -32 -9 -48 -37 -21 -34 -22 -44 -14 -105 5 -36 7 -65 3 -63 -3
3 -14 33 -23 69 -16 59 -16 66 -2 94 21 41 21 42 -12 42 -22 0 -33 -8 -50 -39
l-22 -38 20 -74 c11 -41 19 -78 19 -84 0 -5 -20 30 -44 80 l-43 90 25 32 25
33 -23 0 c-13 -1 -55 -7 -94 -14 -38 -8 -78 -10 -89 -6 -24 9 -56 -25 -57 -62
l0 -23 -11 22 c-8 17 -7 28 6 49 20 29 20 30 -14 39 -21 5 -28 1 -43 -24 -9
-16 -17 -44 -17 -63 0 -25 -3 -29 -10 -18 -15 23 -12 73 6 98 9 13 14 24 13
26 -2 1 -40 25 -84 54 l-80 51 -191 -27 -192 -27 -71 -49 c-61 -43 -73 -55
-81 -90 -6 -23 -14 -56 -20 -75 -6 -23 -6 -49 1 -77 10 -40 9 -45 -21 -88 -50
-69 -91 -78 -181 -40 -36 16 -36 16 -96 -28 -214 -154 -252 -182 -250 -185 2
-1 42 6 90 16 l87 18 0 -31 c-1 -17 -5 -50 -9 -73 -5 -24 -7 -43 -5 -43 2 0
30 39 62 88 l59 87 74 17 c41 9 139 20 219 23 l145 7 187 85 188 86 64 -57
c47 -41 94 -69 166 -101 l101 -44 117 5 c64 3 130 10 145 15 20 6 35 4 50 -5
12 -8 124 -44 250 -81 169 -49 235 -65 258 -60 40 9 31 16 -64 50 -43 15 -77
29 -75 30 2 2 65 -13 141 -32 126 -33 140 -35 167 -22 30 14 29 14 -178 97
l-209 83 -37 96 c-20 53 -34 98 -32 100 3 3 39 -2 81 -11 111 -23 159 -19 263
19 9 3 6 15 -13 42 -18 27 -25 51 -25 85 0 46 -1 48 -62 94 -35 26 -100 83
-145 128 l-83 81 0 -35 c0 -83 -3 -83 -91 -23 -43 30 -79 50 -79 45z m327
-300 c-9 -2 -34 2 -55 9 l-37 13 30 6 c19 4 39 0 54 -9 21 -13 22 -16 8 -19z"/>
<path d="M990 1441 c71 -65 78 -69 134 -75 33 -3 60 -5 62 -3 1 1 -41 35 -93
75 -83 62 -101 72 -137 72 l-41 0 75 -69z"/>
<path d="M337 628 c-16 -12 -17 -33 -15 -248 l3 -235 165 -3 c193 -3 190 -4
190 95 l0 63 -55 0 -55 0 0 -50 0 -50 -75 0 -75 0 0 190 0 190 75 0 75 0 0
-50 0 -50 55 0 55 0 0 63 c0 34 -5 69 -10 77 -13 21 -306 28 -333 8z"/>
<path d="M960 633 c-8 -3 -18 -11 -22 -17 -13 -20 -9 -451 4 -464 13 -13 311
-18 342 -6 14 5 16 36 16 240 0 220 -1 234 -19 244 -20 10 -294 13 -321 3z
m238 -245 l2 -188 -80 0 -80 0 0 190 0 191 78 -3 77 -3 3 -187z"/>
<path d="M1560 390 l0 -250 56 0 55 0 -3 135 c-2 74 -1 135 2 135 3 0 23 -48
45 -107 38 -102 42 -108 70 -111 30 -3 31 -1 69 105 21 59 42 111 45 115 3 4
5 -56 3 -132 l-4 -140 56 0 56 0 0 250 0 250 -52 0 -53 0 -53 -128 c-29 -70
-57 -134 -61 -141 -5 -8 -29 39 -67 128 l-59 141 -52 0 -53 0 0 -250z"/>
<path d="M2260 390 l0 -250 150 0 150 0 0 30 0 30 -95 0 -95 0 0 85 0 85 80 0
80 0 0 30 0 30 -80 0 -80 0 0 75 0 75 95 0 95 0 0 30 0 30 -150 0 -150 0 0
-250z"/>
<path d="M2770 610 l0 -30 60 0 60 0 0 -220 0 -220 55 0 55 0 0 220 0 220 60
0 60 0 0 30 0 30 -175 0 -175 0 0 -30z"/>
</g>
</svg>
